<svg xmlns="http://www.w3.org/2000/svg" width="89.518" height="102.236" viewBox="0 0 89.518 102.236">
  <g id="Grupo_1103427" data-name="Grupo 1103427" transform="translate(-1371.721 -239.765)">
    <g id="Grupo_1103426" data-name="Grupo 1103426">
      <g id="Grupo_1103425" data-name="Grupo 1103425">
        <path id="Trazado_886442" data-name="Trazado 886442" d="M1771.963,608.65c4.016-1.209,8.058-2.418,11.988-2.4a4.236,4.236,0,0,1,1.875.319c1.443.71,1.736,2.682,1.869,4.415a318.424,318.424,0,0,1-.891,57.522,39.583,39.583,0,0,1-1.07,6.489,5.563,5.563,0,0,1-1.011,2.183,6.1,6.1,0,0,1-1.6,1.215,110.115,110.115,0,0,1-44.247,14.778,2.059,2.059,0,0,1-1.19-.108c-.472-.271-.565-.92-.619-1.51a495.9,495.9,0,0,1-1.409-71.908s25.073-7.608,36.3-10.994Z" transform="matrix(0.97, -0.242, 0.242, 0.97, -458.357, 84.223)" fill="#7bf2ff"/>
        <path id="Trazado_886443" data-name="Trazado 886443" d="M1781.467,623.481c5.4-.316,10.891-.627,16.279.358a8.214,8.214,0,0,1,2.591.806c2.009,1.128,2.418,3.338,2.611,5.254a263.424,263.424,0,0,1-1.119,61.734,29.111,29.111,0,0,1-1.464,6.585,3.914,3.914,0,0,1-1.392,1.982,6.255,6.255,0,0,1-2.189.74,151.087,151.087,0,0,1-57.2.442,3.551,3.551,0,0,1-1.45-.5,2.246,2.246,0,0,1-.76-1.713,422,422,0,0,1-1.679-72.815S1766.679,624.341,1781.467,623.481Z" transform="matrix(0.97, -0.242, 0.242, 0.97, -459.7, 78.713)" fill="#023047"/>
        <path id="Trazado_886444" data-name="Trazado 886444" d="M1782.233,702.151a45.921,45.921,0,0,1-39.162,8.391,39.333,39.333,0,0,1-6.481-2.141q.529,7.51,1.279,14.813a2.662,2.662,0,0,0,.762,1.908,3.346,3.346,0,0,0,1.452.552,136.322,136.322,0,0,0,57.274-.492,5.838,5.838,0,0,0,2.19-.824,4.386,4.386,0,0,0,1.394-2.207,35.651,35.651,0,0,0,1.466-7.333,324.043,324.043,0,0,0,2.356-45.7,68.045,68.045,0,0,1-22.531,33.037Z" transform="matrix(0.97, -0.242, 0.242, 0.97, -466.207, 55.014)" fill="#060107"/>
        <path id="Trazado_886445" data-name="Trazado 886445" d="M1741.919,661.386q-.609,17.582-.187,35.178c.013.645,1.025.651,1,0q-.427-17.583.187-35.178c.02-.645-.983-.645-1,0Z" transform="matrix(0.97, -0.242, 0.242, 0.97, -466.179, 62.013)" fill="#fff"/>
        <path id="Trazado_886446" data-name="Trazado 886446" d="M1763.109,650.446q.379,7.341.759,14.68c.033.645,1.037.645,1,0q-.38-7.34-.759-14.68c-.034-.645-1.037-.645-1,0Z" transform="matrix(0.97, -0.242, 0.242, 0.97, -468.99, 68.717)" fill="#fff"/>
        <path id="Trazado_886447" data-name="Trazado 886447" d="M1764.314,649.642a2.539,2.539,0,0,1,3.351-.133,3.661,3.661,0,0,1,1.556,3.192c-.073,2.819-2.494,4.741-4.907,5.7-.592.24-.333,1.21.265.971,3.005-1.2,5.977-3.75,5.618-7.314a4.612,4.612,0,0,0-2.347-3.61,3.447,3.447,0,0,0-4.255.485c-.419.492.292,1.2.711.711h0Z" transform="matrix(0.97, -0.242, 0.242, 0.97, -468.942, 69.404)" fill="#fff"/>
        <path id="Trazado_886448" data-name="Trazado 886448" d="M1774.988,664.827q.628-4.139,1.263-8.278c.213-1.376.419-2.759.632-4.135.094-.592.173-1.177.28-1.768.052-.28.106-.559.179-.838.047-.186.1-.365.153-.552-.193-.286-.226-.306-.113-.06a11.163,11.163,0,0,0,.692,1.895c.2.572.405,1.157.6,1.735.425,1.257.824,2.527,1.21,3.8.764,2.547,1.436,5.113,2.034,7.7.146.632,1.117.366.971-.266-.685-2.985-1.482-5.951-2.394-8.876q-.677-2.194-1.449-4.361c-.232-.665-.439-1.376-.731-2.015-.16-.346-.325-.672-.725-.765-1.077-.246-1.27,1.663-1.4,2.334-.286,1.536-.485,3.092-.719,4.628q-.727,4.777-1.456,9.548c-.1.631.872.9.971.266h0Z" transform="matrix(0.97, -0.242, 0.242, 0.97, -472.377, 70.233)" fill="#fff"/>
        <path id="Trazado_886449" data-name="Trazado 886449" d="M1791.657,647.95a2.776,2.776,0,0,0-4.787,2.779,5.675,5.675,0,0,0,1.968,1.9,14.169,14.169,0,0,1,2.64,2.241c1.416,1.582,3.45,4.781,1.409,6.662a2,2,0,0,1-3.039-.412c-.857-1.15-.651-2.706-.306-4a.5.5,0,0,0-.97-.266c-.518,1.948-.552,4.3,1.229,5.625a3.032,3.032,0,0,0,4.628-1.476c.871-2.187-.385-4.521-1.716-6.217a12.778,12.778,0,0,0-2.433-2.367c-.857-.645-2.041-1.184-2.539-2.194-.9-1.848,1.828-3.391,3.052-1.762.386.512,1.257.013.871-.505h0Z" transform="matrix(0.97, -0.242, 0.242, 0.97, -476.357, 71.674)" fill="#fff"/>
        <path id="Trazado_886450" data-name="Trazado 886450" d="M1802.6,648.45a2.776,2.776,0,0,0-4.787,2.779,5.675,5.675,0,0,0,1.968,1.9,14.167,14.167,0,0,1,2.64,2.24c1.417,1.583,3.451,4.781,1.409,6.662a2,2,0,0,1-3.038-.412c-.857-1.15-.651-2.706-.305-4a.5.5,0,0,0-.971-.266c-.519,1.948-.552,4.3,1.229,5.625a3.032,3.032,0,0,0,4.628-1.476c.871-2.187-.385-4.521-1.716-6.217a12.836,12.836,0,0,0-2.433-2.367c-.858-.645-2.042-1.183-2.54-2.194-.9-1.849,1.828-3.391,3.052-1.762.385.512,1.257.013.871-.505h0Z" transform="matrix(0.97, -0.242, 0.242, 0.97, -479.955, 72.398)" fill="#fff"/>
        <path id="Trazado_886451" data-name="Trazado 886451" d="M1781.2,662.1a36.711,36.711,0,0,0-5.319.671.5.5,0,0,0,.265.971,34.929,34.929,0,0,1,5.054-.631c.644-.034.644-1.037,0-1h0Z" transform="matrix(0.97, -0.242, 0.242, 0.97, -474.009, 65.776)" fill="#fff"/>
        <g id="Trazado_886452" data-name="Trazado 886452" transform="matrix(0.97, -0.242, 0.242, 0.97, -473.108, 53.967)" fill="none">
          <path d="M1793.059,700.054a14.719,14.719,0,1,0,0,.006c-.027.645.983.645,1,0a14.847,14.847,0,1,0-12.6,14.009,15,15,0,0,0,12.6-14.009c.034-.645-.97-.645-1,0Z" stroke="none"/>
          <path d="M 1779.266723632812 714.231689453125 C 1773.944213867188 714.231689453125 1768.89208984375 711.3871459960938 1766.231201171875 706.563232421875 C 1763.205810546875 701.07763671875 1764.070556640625 694.0501708984375 1768.218994140625 689.4425048828125 C 1772.3681640625 684.8350830078125 1779.156494140625 683.299072265625 1784.901123046875 685.672607421875 C 1790.64013671875 688.0439453125 1794.294799804688 693.8594360351562 1794.0634765625 700.0426025390625 C 1794.078002929688 699.4154052734375 1793.092407226562 699.421630859375 1793.05908203125 700.0604248046875 C 1793.31103515625 693.5447998046875 1788.976806640625 687.5740966796875 1782.61376953125 685.9720458984375 C 1777.009155273438 684.5623779296875 1770.952026367188 686.8760375976562 1767.733642578125 691.6895751953125 C 1764.516357421875 696.50341796875 1764.642333984375 702.9127197265625 1768.099853515625 707.6199951171875 C 1771.557250976562 712.3274536132812 1777.873291015625 714.322265625 1783.378173828125 712.60009765625 C 1788.8837890625 710.8779296875 1792.746337890625 705.784912109375 1793.05908203125 700.053955078125 L 1793.05908203125 700.0604248046875 C 1793.032470703125 700.695556640625 1794.012329101562 700.7055053710938 1794.061157226562 700.0892333984375 C 1793.66943359375 707.0580444335938 1788.42822265625 713.033447265625 1781.4638671875 714.0693359375 C 1780.730102539062 714.1783447265625 1779.995849609375 714.231689453125 1779.266723632812 714.231689453125 Z M 1794.061157226562 700.0892333984375 C 1794.061767578125 700.0794067382812 1794.062255859375 700.0702514648438 1794.062744140625 700.0604248046875 C 1794.0625 700.0701293945312 1794.061889648438 700.0797729492188 1794.061157226562 700.0892333984375 Z M 1794.062744140625 700.0604248046875 C 1794.06298828125 700.0543823242188 1794.063232421875 700.0486450195312 1794.0634765625 700.0426025390625 C 1794.063232421875 700.0484619140625 1794.063110351562 700.054443359375 1794.062744140625 700.0604248046875 Z" stroke="none" fill="#fff"/>
        </g>
        <path id="Trazado_886453" data-name="Trazado 886453" d="M1790.692,691.645a24.079,24.079,0,0,1-21.622,1.542c-.711-.292-1.017.858-.319,1.15a25.238,25.238,0,0,0,22.545-1.662.6.6,0,0,0-.6-1.031Z" transform="matrix(0.97, -0.242, 0.242, 0.97, -474.765, 53.293)" fill="#fff"/>
        <path id="Trazado_886454" data-name="Trazado 886454" d="M1769.414,717.546a25.344,25.344,0,0,1,22.334.279c.684.352,1.289-.678.6-1.031a26.6,26.6,0,0,0-23.537-.279c-.691.339-.086,1.37.605,1.031h0Z" transform="matrix(0.97, -0.242, 0.242, 0.97, -476.884, 44.695)" fill="#fff"/>
        <path id="Trazado_886455" data-name="Trazado 886455" d="M1783.679,685.532q1.046,10.921,2.167,21.828c.212,2.054.432,4.1.665,6.157.086.758,1.283.765,1.2,0-.937-8.171-1.7-16.369-2.5-24.554-.113-1.144-.22-2.287-.332-3.431-.073-.758-1.27-.764-1.2,0Z" transform="matrix(0.97, -0.242, 0.242, 0.97, -479.537, 55.45)" fill="#fff"/>
        <path id="Trazado_886456" data-name="Trazado 886456" d="M1792.585,686.511c4.482,7.493,5.665,17.546,1.981,25.6-.32.692.711,1.3,1.031.6,3.869-8.457,2.739-18.922-1.981-26.814a.6.6,0,0,0-1.031.605Z" transform="matrix(0.97, -0.242, 0.242, 0.97, -481.879, 55.91)" fill="#fff"/>
        <path id="Trazado_886457" data-name="Trazado 886457" d="M1776.064,686.566c-3.943,8.291-4.142,18.829.518,26.88a.6.6,0,0,0,1.031-.6c-4.435-7.666-4.275-17.779-.518-25.671.326-.691-.705-1.3-1.031-.6Z" transform="matrix(0.97, -0.242, 0.242, 0.97, -476.748, 54.349)" fill="#fff"/>
      </g>
    </g>
  </g>
</svg>
