<svg xmlns="http://www.w3.org/2000/svg" xmlns:xlink="http://www.w3.org/1999/xlink" width="1307" height="883" viewBox="0 0 1307 883">
  <defs>
    <clipPath id="clip-path">
      <rect id="Rect치ngulo_403276" data-name="Rect치ngulo 403276" width="315" height="769" transform="translate(1149.051 1939.346)" fill="#fff" stroke="#707070" stroke-width="1"/>
    </clipPath>
    <clipPath id="clip-path-2">
      <rect id="Rect치ngulo_401684" data-name="Rect치ngulo 401684" width="530.117" height="752.571" transform="translate(0 0)" fill="#86a4bb"/>
    </clipPath>
  </defs>
  <g id="Grupo_1103432" data-name="Grupo 1103432" transform="translate(-157.051 -1872.346)">
    <g id="Enmascarar_grupo_1098888" data-name="Enmascarar grupo 1098888" clip-path="url(#clip-path)">
      <g id="Grupo_1103340" data-name="Grupo 1103340" transform="translate(1359.668 2186.775)" opacity="0.82" style="mix-blend-mode: multiply;isolation: isolate">
        <g id="Grupo_1100390" data-name="Grupo 1100390" transform="translate(-171.996 -244)" clip-path="url(#clip-path-2)">
          <path id="Trazado_875812" data-name="Trazado 875812" d="M280.435,107.165a34.016,34.016,0,0,0-.634-8.935,9.386,9.386,0,0,0-4.025-5.675c-4.636-3.2-10.945-4.479-16.477-4.834a17.677,17.677,0,0,0-8.913,1.979c-3.049,1.488-5.9,3.359-9.21,4.245a12.024,12.024,0,0,1-9.376-1.012c-2.739-1.515-5.288-3.323-8.31-4.259-3.116-.967-6.444-.926-9.668-1.174-3.1-.238-6.556-.661-8.922-2.892-1.988-1.875-3.233-4.735-4.434-7.15-1.246-2.509-2.383-5.072-3.6-7.6-2.217-4.609-4.7-9.25-8.729-12.542-4.569-3.728-10.532-4.488-16.238-3.773-3.773.468-7.447,1.578-11.256,1.812a91.209,91.209,0,0,1-13.518-.666c-2.2-.2-4.4-.432-6.6-.675a42.03,42.03,0,0,0-5.715-.459c-3.467.1-6.759,1.286-9.983,2.451-3.265,1.178-6.912,2.617-10.451,2.347-3.314-.252-10.9-4.956-11.211-3.566-2.775-.427-5.3,1.151-7.442,2.811-.31.238-.607.486-.908.733-3.7,1.875-7.3,3.944-10.869,6.075-.1.059-.2.121-.3.18a49.941,49.941,0,0,0-8.022,3.067,52.56,52.56,0,0,0-9.142,6.57c-.4.337-.764.7-1.156,1.039-.908.486-1.808.985-2.734,1.443-.045.023-.054.13.014.1.764-.36,1.511-.755,2.271-1.133-2.685,2.4-5.288,4.879-7.915,7.334a1.333,1.333,0,0,0-.477,1.385c1.088,3.085,4.65,3.544,6.287,6.152a11.376,11.376,0,0,1,1.322,5.518,24.661,24.661,0,0,1-.6,6.745c-.908,4.056-2.442,7.973-2.968,12.115-.517,4.079.719,8.013.576,12.088a41.978,41.978,0,0,0,0,6.017,26.614,26.614,0,0,0,1.151,5.113,36.345,36.345,0,0,0,4.857,9.925,22.294,22.294,0,0,0,7.6,6.66,56.872,56.872,0,0,1,8.679,5.5c4.681,3.881,6.853,10.451,8.54,16.108,1.417,4.762,2.824,9.677,6.12,13.536,3.953,4.627,9.659,6.089,15.469,6.817,3.292.409,6.79.4,9.848,1.853,3.391,1.61,5.927,4.776,8.328,7.564a52.034,52.034,0,0,1,6.984,9.974,25.534,25.534,0,0,1,2.761,11.436c.175,7.388-3.44,14.309-5.621,21.194a36.388,36.388,0,0,0-1.412,11.692c.032,2.271.121,4.542-.009,6.808a40.009,40.009,0,0,1-1.183,6.556,37.872,37.872,0,0,0-1.169,11.611c.139,1.7.76,3.26.971,4.947a19.963,19.963,0,0,1,.072,4.335c-.58,6-2.869,11.854-2.608,17.934.2,4.546,2.7,9.542,7.164,11.287,3.1,1.21,5.837-.706,7.645-3.143,2.428-3.278,3.719-7.182,4.906-11.04a83.872,83.872,0,0,1,3.656-10.572,46.6,46.6,0,0,1,5.329-7.964c2.581-3.44,5.3-6.781,8.04-10.1,4.659-5.644,12.5-5.9,18.581-9.331,5.477-3.085,9.151-7.816,12.187-13.221,3.485-6.21,5.792-13.333,10.235-18.959,4.623-5.855,12.178-7.321,18.356-10.9a15.809,15.809,0,0,0,6.592-7.289c1.331-2.91,1.992-6.071,3.314-8.985a15.852,15.852,0,0,1,2.878-4.411,46.53,46.53,0,0,1,3.894-3.26c2.891-2.433,4.241-5.662,5.459-9.156,1.367-3.917,2.86-7.789,4.2-11.714,1.313-3.854,2.586-7.762,4.753-11.238,2.127-3.413,4.479-6.628,6.336-10.2,1.884-3.62,3.026-7.478,4.632-11.211,1.659-3.863,3.849-7.474,5.7-11.242a54.134,54.134,0,0,0,4.214-11.791c1.574-6.831,1.709-13.99,1.884-20.978m-4.357,23.627c-2.379,7.942-7.375,14.6-10.266,22.314a75.159,75.159,0,0,1-4.776,10.977c-1.974,3.485-4.506,6.669-6.237,10.284a106.809,106.809,0,0,0-4.146,10.977c-1.345,3.845-2.725,7.712-4.164,11.526a15,15,0,0,1-2.725,5.05,38.842,38.842,0,0,1-3.813,3.2,19.483,19.483,0,0,0-5.527,7.937c-1.183,2.954-1.83,6.152-3.4,8.944-1.812,3.229-4.825,4.974-8.081,6.5a101.432,101.432,0,0,0-9.754,4.722,23.053,23.053,0,0,0-7.038,6.619c-4.02,5.747-6.4,12.488-9.907,18.545a35.982,35.982,0,0,1-5.279,7.285,25.533,25.533,0,0,1-8.1,5.428c-3.089,1.363-6.408,2.082-9.52,3.382a19.562,19.562,0,0,0-7.9,6.264c-2.649,3.314-5.293,6.642-7.78,10.087a47.384,47.384,0,0,0-4.942,7.64c-1.5,3.269-2.284,6.822-3.521,10.194-1.34,3.669-2.766,7.64-5.037,10.842-1.812,2.559-4.254,3.6-7.056,1.79a12.294,12.294,0,0,1-4.749-5.729,18.639,18.639,0,0,1-.693-8.5c.594-5.828,2.68-11.575,2.568-17.466-.031-1.763-.364-3.5-.535-5.243a28.9,28.9,0,0,1,.09-6.012c.45-4.1,1.39-8.126,1.578-12.259.189-4.083-.175-8.189.351-12.259.513-4,2.15-7.807,3.557-11.562,2.365-6.327,5.014-13.243,3.535-20.074a28.459,28.459,0,0,0-4.632-10.037,94.025,94.025,0,0,0-7.271-9.277c-2.343-2.644-4.708-5.077-8.018-6.476a33.41,33.41,0,0,0-9.259-1.979c-5.8-.661-11.332-2.248-15.02-7.065-2.963-3.876-4.726-8.989-6.3-13.567-1.871-5.441-3.957-11.229-8.589-14.934-2.64-2.114-5.734-3.517-8.472-5.477a29.7,29.7,0,0,1-7.321-7.834,35.112,35.112,0,0,1-4.537-9.965,21.743,21.743,0,0,1-.814-5.913c.009-2.024.22-4.052.027-6.071-.189-1.965-.675-3.89-.8-5.859a23,23,0,0,1,.693-6.458c.9-3.984,2.262-7.861,2.68-11.944.328-3.206.472-7.069-1.165-9.97-1.349-2.392-4.366-3.2-5.648-5.549a138.221,138.221,0,0,1,12.87-11.463q3.912-2.152,7.775-4.38c1.812-.7,3.665-1.282,5.518-1.947a31.3,31.3,0,0,0,9.345-5.1c1.07-.872,2.226-1.911,3.472-2.793a16.065,16.065,0,0,1,3.737-1.385,9.112,9.112,0,0,1,5.059.679c2.941,1.129,5.7,2.779,8.944,2.775,3.373,0,6.619-1.192,9.758-2.311,3.26-1.169,6.615-2.392,10.127-2.347,2.051.022,4.11.4,6.143.625q3.184.351,6.377.616a88.739,88.739,0,0,0,12.929.5c3.746-.243,7.361-1.3,11.053-1.907,5.945-.98,11.791-.04,16.243,4.268,3.759,3.638,6.1,8.549,8.292,13.221,1.142,2.437,2.248,4.893,3.49,7.28s2.518,5.05,4.645,6.745c5.027,4.007,12.313,2.159,18.136,3.741,3.022.818,5.549,2.716,8.3,4.128a12.982,12.982,0,0,0,8.36,1.385,29.2,29.2,0,0,0,9.363-3.836c2.873-1.628,5.76-3.152,9.16-3a44.05,44.05,0,0,1,8.229,1.408,28.507,28.507,0,0,1,8.391,3.229,8.587,8.587,0,0,1,4.259,6.057,40.608,40.608,0,0,1,.337,9.079c-.319,7.321-.472,14.633-2.59,21.706" transform="translate(197.662 186.62)" fill="#86a4bb"/>
          <path id="Trazado_875813" data-name="Trazado 875813" d="M94.086,90.584a7.285,7.285,0,0,0,1.057-3.314,15.171,15.171,0,0,0-.522-4.753,12.235,12.235,0,0,0-2.181-4.839C91.123,76,88.9,75.061,86.986,74.238c-2.132-.917-4.223-1.691-5.886-3.386-3.31-3.373-3.876-8.256-6.035-12.29-2.536-4.753-7.649-8.081-13.117-6.853a41.72,41.72,0,0,0-8.342,3.373c-1.349.639-2.712,1.264-4.106,1.8A11.042,11.042,0,0,0,46.311,58.7a5.714,5.714,0,0,0-2.069,5.666c.589,2.7,2.918,4.762,5.041,6.323a32.443,32.443,0,0,1,3.274,2.64c1.025.985,1.938,2.073,2.959,3.062,2.051,2,4.821,3.035,6.957,4.942s3.939,4.16,6.206,5.927a23.79,23.79,0,0,0,7.146,3.791,31.359,31.359,0,0,0,3.944.976c1.475.288,2.932.616,4.407.917a9.715,9.715,0,0,0,3.872.261,12.916,12.916,0,0,0,2.217-.684A4.287,4.287,0,0,0,93.286,91.5c.27-.018.944-.863.8-.913m-12.38,1.205A27.781,27.781,0,0,1,67.739,84.85c-1.839-1.8-3.445-3.894-5.509-5.455-1-.76-2.087-1.381-3.13-2.073a12.2,12.2,0,0,1-3.089-2.932,30.065,30.065,0,0,0-2.28-3.179,26.318,26.318,0,0,0-2.725-2.32c-2-1.556-4.155-3.238-4.933-5.765-.684-2.217,1.25-3.683,2.927-4.731a43.2,43.2,0,0,1,7.775-3.728A15.9,15.9,0,0,1,64.712,53.5a14.359,14.359,0,0,1,6.871,3.328c3.373,2.856,4.393,7.087,6.233,10.914a14.593,14.593,0,0,0,3.5,4.9,22.813,22.813,0,0,0,5.221,3.17,16.174,16.174,0,0,1,5.617,3.7,8.784,8.784,0,0,1,1.907,4.956,10.614,10.614,0,0,1-.513,4.965,2.883,2.883,0,0,1-.787,1.057,10.587,10.587,0,0,0-2.307.652c-.247-.013-1.376.153-1.524.472a15.811,15.811,0,0,1-7.222.175" transform="translate(154.593 180.15)" fill="#86a4bb"/>
          <path id="Trazado_875814" data-name="Trazado 875814" d="M99.186,50.936a3.966,3.966,0,0,0-1.826-2.514,7.276,7.276,0,0,0-3.418-.666A55.71,55.71,0,0,0,86.2,48.935a19.331,19.331,0,0,1-10.334-1.448c-1.673-.657-3.3-1.457-5.01-2.006A36.112,36.112,0,0,0,65.4,44.159a23.455,23.455,0,0,0-10.158.274,9.665,9.665,0,0,0-6.894,7.775,17.592,17.592,0,0,0,2.1,10.811,15.5,15.5,0,0,0,2.082,3.013c3.008,4.344,9.848,3.58,14.057,1.569,2.95-1.408,5.716-3.211,8.931-3.944a14.6,14.6,0,0,1,5.131-.3c1.461.184,2.882.558,4.353.693,3.022.279,6.21.387,9.016-.962a9.178,9.178,0,0,0,4.456-5.055,10.6,10.6,0,0,0,.706-7.1m-3.557,9.637c-1.605,1.974-4.429,2.06-6.786,2.051-2.815-.018-5.612-.387-8.436-.387a22.874,22.874,0,0,0-4.362.387c-1.408.283-2.712.8-4.074,1.214-3.989,1.192-8.207,4.043-12.483,3.935-.022-.288-.351-.54-.818-.382.328-.112-.036,0-.135,0s-.225.009-.337,0a3.371,3.371,0,0,1-.63-.117,4.208,4.208,0,0,1-1.376-.67,10.436,10.436,0,0,1-2.586-2.918,20.272,20.272,0,0,1-3.071-8.562,1.492,1.492,0,0,1,.387-.679c.135-.13-.085-.238-.2-.148a2.05,2.05,0,0,0-.265.292l-.009-.085c-.225-2.936.481-6.156,3.224-7.721,1.916-1.093,4.672-1.03,6.781-1.007a47.054,47.054,0,0,1,10.239,1.655c3.251.751,6.417,1.916,9.709,2.487a27.418,27.418,0,0,0,7.721-.184c2.208-.229,4.65-.535,6.822.09,2.019.58,2.662,2.514,2.7,4.438a9.917,9.917,0,0,1-2.01,6.318" transform="translate(168.802 153.181)" fill="#86a4bb"/>
          <path id="Trazado_875815" data-name="Trazado 875815" d="M231.186,40.89c-.369-2.689-2.23-5.41-3.9-7.46a19.018,19.018,0,0,0-7.771-5.913c-3.053-1.174-6.354-1.619-9.354-2.954-5.981-2.667-11.058-6.993-17.21-9.358a55.577,55.577,0,0,0-18.514-3.741,71.343,71.343,0,0,0-18.923,2.388c-13.252,3.3-25.839,8.5-38.282,14.053-6.318,2.82-12.551,5.837-18.743,8.935C92.871,39.654,87.2,42.307,82.308,46.3a123.9,123.9,0,0,0-12.236,12.2c-2.006,2.177-4.034,4.34-6.179,6.386-2.221,2.118-4.6,4.034-7.015,5.922-4.749,3.719-9.345,7.559-12.627,12.69a95.748,95.748,0,0,0-5.081,9.56c-1.569,3.184-3.386,6.246-4.956,9.434s-3.089,6.395-4.4,9.7a44.291,44.291,0,0,0-2.653,9.92c-.517,3.418-.823,6.876-1.565,10.253a49.23,49.23,0,0,1-1.862,6.12c-1.641,4.555-3.562,9.021-4.839,13.7-1.147,4.2-1.857,8.782-.594,13.041a14.036,14.036,0,0,0,3.3,5.662,55.365,55.365,0,0,0,7.024,5.985,57.728,57.728,0,0,0,7.73,5.086,51.279,51.279,0,0,1,6.2,3.283,8.691,8.691,0,0,1,3.6,6.332c.243,2.14.076,4.3.157,6.444a9.3,9.3,0,0,0,1.4,5.207c1.331,1.826,3.714,2.545,5.868,2.712,5.311.418,10.909-3.2,15.95-.481a73.216,73.216,0,0,1,6.826,4.731A18.586,18.586,0,0,0,84.03,213.5a31.913,31.913,0,0,0,9.367-.22,80.329,80.329,0,0,0,8.944-1.682c2.811-.733,5.635-1.5,8.562-1.093,2.154.3,4.281.94,6.408,1.39a34.665,34.665,0,0,0,7.285.976c1.839,0,3.854-.342,5.01-1.92,1.241-1.7,1.183-4.079,1.452-6.066a18.361,18.361,0,0,1,1.853-6.453,8.679,8.679,0,0,1,4.2-3.894c2.253-1.075,4.686-1.767,6.8-3.134a8.946,8.946,0,0,0,4.034-5.135,11.853,11.853,0,0,0-.8-7.029,12.733,12.733,0,0,0-3.386-5.306,5.821,5.821,0,0,0-2.838-1.327,9.572,9.572,0,0,0-8.157.746c-2.99,1.587-5.486,3.885-8.773,4.915a10.745,10.745,0,0,1-7.771-.778,20.243,20.243,0,0,1-7.883-5.72c-1.88-2.41-3.247-5.752-2.487-8.836.841-3.413,4.573-5.509,7.352-7.209a40.909,40.909,0,0,0,8.953-7.451c4.259-4.767,6.628-12.227,12.6-15.177a.734.734,0,0,0,.872.054c2.383-1.1,4.942.724,6.759,2.14,2.239,1.745,4.384,3.553,6.7,5.207a42.035,42.035,0,0,1,4.191,3.265c1.268,1.178,2.46,2.428,3.678,3.656,1.619,1.632,3.7,3.3,6.138,3.229,2.689-.081,4.983-2.41,6.309-4.537a12.171,12.171,0,0,0,1.358-8.27A16.87,16.87,0,0,0,168.3,130.5c-1.2-1.758-2.851-3.2-3.773-5.14-1.214-2.545-.5-5.189.2-7.784a22.156,22.156,0,0,1,3.926-8.112,62.025,62.025,0,0,1,5.864-5.9c1.673-1.628,3.476-3.755,3.66-6.174.229-3.035-.369-5.985-.76-8.989-.378-2.856-.877-6.138.4-8.845.962-2.028,2.86-3.139,4.812-4.056,2.055-.962,4.2-1.781,6.161-2.927a17.331,17.331,0,0,0,5.855-5.734c1.538-2.406,2.6-5.077,4.047-7.541,1.4-2.388,3.008-4.074,5.76-4.726,2.4-.567,4.9-.5,7.316-.962a32.253,32.253,0,0,0,8.324-3.013,63.084,63.084,0,0,0,7.708-4.362c1.821-1.241,3.714-2.923,3.382-5.342m-2.7,2.6a20.346,20.346,0,0,1-3.427,2.446c-1.214.836-2.4,1.7-3.651,2.487a27.465,27.465,0,0,1-8.144,3.44,64.873,64.873,0,0,1-7.289.877,11.046,11.046,0,0,0-6.278,2.613c-1.979,1.826-3.256,4.34-4.533,6.669a28.206,28.206,0,0,1-4.56,6.8,19.318,19.318,0,0,1-6.035,3.593c-3.953,1.736-8.171,4.02-8.985,8.688-.486,2.8.135,5.567.746,8.3a14.9,14.9,0,0,1,.436,4.821,19.09,19.09,0,0,1-1.111,4.443c-.742,2.176-2.446,3.705-4.07,5.243a28.05,28.05,0,0,0-5.374,6.395,29.743,29.743,0,0,0-2.914,7.852c-.544,2.293-1.12,4.686-.283,6.984.674,1.857,2.055,3.4,3.161,5.01a19.371,19.371,0,0,1,2.856,6.952c.639,2.856.859,6.314-.976,8.8-1.592,2.163-4.079,3.247-6.61,2.127a14.42,14.42,0,0,1-3.323-2.262c-1.21-1-2.491-1.916-3.791-2.8a85.4,85.4,0,0,1-8.018-6.156c-2.995-2.608-6.714-7.056-11.152-5.014a.951.951,0,0,0-.288.193,8.913,8.913,0,0,0-2.577.823,12.742,12.742,0,0,0-3.593,2.865c-2.208,2.428-3.719,5.432-5.554,8.135a48.891,48.891,0,0,1-8.773,9.655c-2.766,2.343-6.4,3.854-8.558,6.862-1.875,2.617-1.781,6.062-.791,9a15.982,15.982,0,0,0,5.536,8.058c2.676,1.857,5.8,3.566,9.1,3.84,3.116.261,6.053-1.259,8.5-3.04a32.165,32.165,0,0,1,5.059-3.427,8.763,8.763,0,0,1,5.774-.486,6.247,6.247,0,0,1,3.8,2.464c.427.6.782,1.241,1.2,1.844a4.714,4.714,0,0,0,1.273,1.336c.306.926.549,1.844.747,2.671.558,2.361.36,4.758-1.466,6.511-1.781,1.713-4.155,2.415-6.408,3.256a14.246,14.246,0,0,0-5.2,2.959,11.335,11.335,0,0,0-3.305,5.7c-.355,2.145.148,4.326-.175,6.453a6.285,6.285,0,0,1-.94,2.864,2.843,2.843,0,0,1-2.221.886c-4.384.288-8.625-1.722-12.834-2.608-5.513-1.156-10.784,1.142-16.121,2.181-6.012,1.169-12.384,2.262-18.006-.836-4.416-2.433-8.364-6.952-13.693-7.217-4.987-.252-10.4,3.31-15.177.517-3.5-2.046-2.613-7.2-2.847-10.6a11.113,11.113,0,0,0-2.042-6.287,14.39,14.39,0,0,0-5.01-3.674,57.622,57.622,0,0,1-6.732-3.665,75.109,75.109,0,0,1-7.361-6.377c-1.916-1.7-3.939-3.319-5.248-5.558a13.737,13.737,0,0,1-1.754-6c-.3-4.5,1.021-8.976,2.473-13.185,1.484-4.308,3.323-8.495,4.654-12.857,1.754-5.743,1.763-11.813,3.193-17.628,1.664-6.777,5.428-12.744,8.171-19.085,2.707-6.246,5.257-12.731,9.668-18.015,3.863-4.632,8.886-7.959,13.468-11.8A132.144,132.144,0,0,0,72.923,56.643,84.43,84.43,0,0,1,85.3,45.036a66.532,66.532,0,0,1,8.063-4.708q4.4-2.32,8.823-4.582a260.58,260.58,0,0,1,36.924-15.964,156.408,156.408,0,0,1,19.035-5.126,68,68,0,0,1,18.446-1.484A50.885,50.885,0,0,1,195.036,18.1c5.6,2.788,10.55,6.961,16.54,8.926,3.017.994,6.21,1.556,8.971,3.2a20.25,20.25,0,0,1,6.7,7.029c.94,1.578,2.842,4.537,1.246,6.228" transform="translate(61.985 40.255)" fill="#86a4bb"/>
          <path id="Trazado_875816" data-name="Trazado 875816" d="M64.632,51.364a2.544,2.544,0,0,0-1.529-1.4,12.24,12.24,0,0,0-5.909-.5,18.69,18.69,0,0,0-3.413.661,5.256,5.256,0,0,0-2.509,1.448c-.184.22-.373.7-.022.886,1.03.54,1.9,1.336,2.865,1.97a2.151,2.151,0,0,0,1.479.522,7.732,7.732,0,0,0,1.448,1.07,4.868,4.868,0,0,0,3.607.607,6.072,6.072,0,0,0,3.624-2.995,2.834,2.834,0,0,0,.36-2.271m-1.524,1.664a5.3,5.3,0,0,1-2.5,1.893,3.848,3.848,0,0,1-2.626-.711c-1.533-.886-3.206-2.325-5.037-2.572.193-.108.54-.279.787-.387a10.832,10.832,0,0,1,2.545-.693,13.265,13.265,0,0,1,5.486.153,2.735,2.735,0,0,1,1.556.922,1.172,1.172,0,0,1-.211,1.394" transform="translate(178.862 172.734)" fill="#86a4bb"/>
          <path id="Trazado_875817" data-name="Trazado 875817" d="M71.663,44.65a3.073,3.073,0,0,0-2.006-.953,8.136,8.136,0,0,0-.994,0,13.837,13.837,0,0,0-4.978-.13A3.85,3.85,0,0,0,60.9,45.392a3.467,3.467,0,0,0,.355,3.9,6.8,6.8,0,0,0,3.539,1.754,8.637,8.637,0,0,0,3.683.18,6.137,6.137,0,0,0,3.611-2.262,3.318,3.318,0,0,0-.423-4.313m-.472,2.824c.045-.229-.013.031-.027.072a.913.913,0,0,1-.049.117l-.054.108c-.076.117-.144.243-.229.355a4.112,4.112,0,0,1-.571.6,4.408,4.408,0,0,1-1.569.818,6.253,6.253,0,0,1-3.206-.054A6.377,6.377,0,0,1,62.4,48.041a2.987,2.987,0,0,1-.229-.247A1.1,1.1,0,0,1,62,47.568a1.792,1.792,0,0,1-.139-.279c.067.18-.049-.328-.022-.094-.009-.067-.009-.135-.013-.2v-.018l0-.031a2.258,2.258,0,0,1,.04-.252l.067-.2c.014-.014.1-.184.126-.225l0-.009.081-.09c.027-.022.166-.144.189-.171a3.054,3.054,0,0,1,.54-.31,5.791,5.791,0,0,1,1.4-.333,14.348,14.348,0,0,1,3.615.144c.544.076,1.079.18,1.623.27.2.027.4.076.6.09l.027-.009a2.723,2.723,0,0,1,.872.782,2.458,2.458,0,0,1,.121.216l.036.076a1.265,1.265,0,0,1,.036.139l.013.036v.013c0,.058,0,.117,0,.175l-.009.022a1.1,1.1,0,0,0-.031.166" transform="translate(211.773 151.967)" fill="#86a4bb"/>
          <path id="Trazado_875818" data-name="Trazado 875818" d="M50.552,2.034c.162-.018.081-.031,0,0" transform="translate(177.113 7.274)" fill="#86a4bb"/>
          <path id="Trazado_875819" data-name="Trazado 875819" d="M527.582,253.887A245.052,245.052,0,0,0,253.758,40.338c-7.06.886-14.075,2.109-21.027,3.611a.745.745,0,0,0,.468-.495,6.388,6.388,0,0,0-.274-2.685c-.225-1.187-.5-2.365-.8-3.539-.081-.306-.18-.612-.261-.922,1.776-1.4,4.587-1.533,6.727-1.943a59.6,59.6,0,0,1,8.7-1.039c.971-.036,1.938-.049,2.9-.121a13.553,13.553,0,0,0,2.8-.337c2.248-.657,2.154-3.139,1.875-5.037a15.615,15.615,0,0,1-.4-2.945c.059-1.088.409-2.28-.328-3.224-.71-.917-2.06-1.048-3.125-1.187a36.02,36.02,0,0,1-4.191-.845,16.7,16.7,0,0,1-7.568-3.723c-1.754-1.7-3.008-3.836-4.632-5.644-1.38-1.538-3.431-3.8-5.72-3.458a17.2,17.2,0,0,0-2.271.544c-.22.049-.441.112-.657.18-.049.013-.094.031-.144.04a14.06,14.06,0,0,1-1.605.369,4.022,4.022,0,0,1-1.007.09,18.533,18.533,0,0,0-3.472-5.374,9.9,9.9,0,0,0-7.613-2.64A14.454,14.454,0,0,0,203,3.99a10.69,10.69,0,0,0-3.3,8.791,16.7,16.7,0,0,0,.486,2.662.336.336,0,0,0-.085.306l0,.022-.013-.027c-.445-.6-5.05,2.262-6.97,2.806a97.026,97.026,0,0,0-9.408,3.346c-3.067,1.223-6.251,2.253-9.223,3.683-.814.391-1.61.814-2.406,1.241-4.582,1.9-9.115,3.917-13.531,6.174-6.952,3.548-13.711,7.55-20.429,11.526s-13.311,8.121-19.719,12.564A162.632,162.632,0,0,0,100.8,70.89c-1.8,1.664-3.526,3.4-5.23,5.158-.7.6-1.408,1.187-2.1,1.8A165.317,165.317,0,0,0,81.518,90.357c-4.546,4.69-8.967,9.493-13.131,14.543-4.825,5.85-9.363,11.953-13.626,18.226-1.956,2.878-3.836,5.81-5.85,8.652-1.974,2.784-4.007,5.527-5.972,8.319-3.845,5.473-7.667,11.22-9.844,17.6-.2.6-.373,1.21-.54,1.817-.522,1.129-1.039,2.257-1.538,3.4-4.551,10.4-8.967,20.929-12.537,31.708-1.817,5.5-3.346,11.076-4.8,16.674-.72,2.761-1.354,5.527-1.97,8.315-.585,2.644-1.511,5.153-2.338,7.726-.953,2.95-2.878,15.456-3.458,18.644-.283,1.542-.585,3.089-.881,4.641a.152.152,0,0,0-.166.144c.027.157.031.319.049.477-.657,3.382-2.28,12.978-2.5,14.39-.949,5.976-1.39,11.953-1.781,17.983A203.628,203.628,0,0,0,6.3,350.642a203.037,203.037,0,0,0,10.5,31.487c2.437,5.639,5.3,11.08,8.045,16.576,6.7,19.242,18.5,36.088,30.889,52.155,7.02,9.106,14.538,17.88,23.528,25.1,4.555,3.656,9.048,7.37,13.563,11.08s9.556,6.8,14.336,10.194a347.579,347.579,0,0,0,62.9,35.791c11.247,4.861,22.516,9.893,34.131,13.819,1.223.414,2.46.778,3.692,1.151a4.322,4.322,0,0,0,.729,1.668,11.907,11.907,0,0,1,1.214,1.812,11.2,11.2,0,0,1,.7,2.338c.166.724.4,1.417.621,2.114a26.372,26.372,0,0,1-.036,3.723c-.283,3.669-1.174,7.267-1.655,10.91-.112.886-.274,1.758-.4,2.64-.27,1.336-.553,2.671-.845,4-1.313,5.922-3.157,11.755-4.425,17.7a12.36,12.36,0,0,1-2.235,1.659c-1.592.895-3.278,1.659-4.169,3.35-2.1,3.989-1.889,8.886-2.914,13.189-.612,2.55-1.452,5.041-2.2,7.555-.481,1.628-1.016,3.31-1.354,5.009q-8.621-.385-17.255-.234c-.373,0-.742,0-1.115,0-.917.023-1.835.076-2.752.112-3.822.126-7.649.3-11.467.607-11.206.958-22.421,2.707-33.16,6.246A60.085,60.085,0,0,0,109.9,639.7a29.433,29.433,0,0,0-6.206,5.846,19.006,19.006,0,0,0-1.637,2.586,64.7,64.7,0,0,0-12.2,7.285A37.176,37.176,0,0,0,82.606,663a23.664,23.664,0,0,0-4.11,10.046c-.1.647-.13,1.3-.166,1.952a41.5,41.5,0,0,0,1.147,8.832,37.178,37.178,0,0,0,4.7,9.331,68.588,68.588,0,0,0,14.084,14.332,129.327,129.327,0,0,0,16.472,10.792c5.711,3.175,11.535,6.1,17.479,8.724,23.834,10.392,49,16.994,74.486,21.086,25.493,4.016,51.516,5.365,77.391,2.469,12.9-1.547,25.826-4.034,38.2-8.782a82.676,82.676,0,0,0,9.309-4.236,8.192,8.192,0,0,0,1.043-.58,59.77,59.77,0,0,0,7.271-4.744c.22-.18.432-.373.652-.558.423-.288.836-.593,1.273-.863a14.971,14.971,0,0,0,4.106-4.3,37.747,37.747,0,0,0,3.472-5.073,21.03,21.03,0,0,0,1.925-11.773c-.018-.153-.058-.3-.081-.454a24.45,24.45,0,0,0-1.025-4.893,33.041,33.041,0,0,0-2.676-6.084c-.171-.346-.342-.693-.526-1.034a38.192,38.192,0,0,0-4.011-6.044c-1.457-1.776-2.775-3.723-4.866-4.8-.153-.153-.3-.306-.454-.454a17.954,17.954,0,0,0-1.012-4.4,28.981,28.981,0,0,0-4.124-7.339,60.942,60.942,0,0,0-12.3-11.481c-9.124-6.6-19.265-11.656-29.634-15.986A261.153,261.153,0,0,0,259.1,636.163c.391-3.413-.063-7.119.283-10.32.495-4.573,2.64-8.886,2.716-13.522a8.686,8.686,0,0,0-.387-3.134,7.768,7.768,0,0,0-2.185-2.847,18.481,18.481,0,0,1-3.323-3.8,25.981,25.981,0,0,1-1.691-3.305c.189-4.7.2-9.407.688-14.093.526-5.063,1.551-10.077,2.257-15.123.045-.324.076-.648.117-.976q.843-3.2,1.691-6.395a20.361,20.361,0,0,1,1.151-3.355c.13-.274.22-.553.337-.823.207-.139.4-.283.616-.409.6-.355,1.165-.661,1.785-.958,4.533.135,9.079.247,13.6.22,1.6-.009,3.184-.081,4.767-.184,2.644-.063,5.288-.2,7.933-.432,5.882-.522,11.8-.459,17.677-1.007,5.707-.531,11.319-1.776,17.021-2.347a48.854,48.854,0,0,1,8.166-.589,9.461,9.461,0,0,0,3.125-.094,2.163,2.163,0,0,0,.274-.126,6.2,6.2,0,0,0,2.725,2.914,3.556,3.556,0,0,0,1.506,1.007,7.083,7.083,0,0,0,1.664.351,11.452,11.452,0,0,0,7.069-.585,9.684,9.684,0,0,0,5.126-4.137,11.4,11.4,0,0,0,.733-7.087,74,74,0,0,0-1.664-7.321c-.935-3.5-2.186-6.889-3.152-10.374-.4-1.443-.688-2.919-1.16-4.344-.121-.369-.261-.751-.418-1.133A246.646,246.646,0,0,0,527.582,253.887m-33.52-89.214a243.014,243.014,0,0,1,22.628,55.514c-.04-.009-.076-.027-.112-.031-.328-.058-.769.481-.364.666a4.317,4.317,0,0,1,.76.459l.121.481c-.985.5-2.284.049-3.283-.373a21.572,21.572,0,0,1-4.938-3.152c-1.444-1.151-2.757-2.455-4.263-3.535-1.327-.953-2.734-1.781-4.106-2.667a13.6,13.6,0,0,1-3.125-2.437c-1.228-1.457-1.066-3.211-1.039-5a16.374,16.374,0,0,0-1.012-6.579c-1.529-3.768-4.7-6.646-7.748-9.214-3.278-2.757-7.393-5.477-9.075-9.605a9.552,9.552,0,0,1,.2-7.307c.814-1.97,2.064-3.894,2.487-6,.427-2.131-.562-4.322-1.745-6.044-.845-1.237-1.9-2.266-2.779-3.472-.859-1.178-1.691-2.379-2.572-3.535a24.8,24.8,0,0,0-5.657-5.608c-1.785-1.232-4.011-2.388-5.086-4.362-1.25-2.3-1.25-5.279-1.461-7.829-.252-3.026-.306-6.075-.279-9.115.018-1.893.369-3.728.468-5.612V120.3a243.312,243.312,0,0,1,31.982,44.375M252.8,29.33c.009.135.022.3.036.463a1.352,1.352,0,0,0-.679.418,1.465,1.465,0,0,1-1.345.666c-.751.067-1.511.085-2.266.157-2.091.189-4.187.378-6.273.621-3.683.436-7.631.949-11.071,2.428-.189-.63-.382-1.255-.571-1.884,3.337-1.628,7.375-1.646,10.995-2.208,2.221-.346,4.479-.472,6.718-.652,1.048-.085,2.1-.157,3.148-.252.418-.04.85-.063,1.268-.13.014.126.031.247.04.373M224.447,10.187a5.967,5.967,0,0,0,1.736-.594c.265-.121.526-.252.791-.369.112-.049.234-.094.351-.144h0l-.018,0a3.051,3.051,0,0,0,.387-.1,6.053,6.053,0,0,1,1.443-.211c.229,0,.459.054.688.072a2.118,2.118,0,0,0,.508-.031c.13.112.252.234.378.351a.219.219,0,0,0,.225.018c.189.157.373.315.544.468,1.754,1.547,2.995,3.49,4.564,5.194a21.015,21.015,0,0,0,5.9,4.133,33.384,33.384,0,0,0,7.829,2.842c.962.207,2.649.193,2.878,1.408a23.43,23.43,0,0,1-.162,3.058c.032.576.1,1.142.166,1.713-.558.076-1.12.2-1.641.256-1.084.117-2.163.252-3.242.387-2.176.274-4.353.6-6.516.971-3.553.612-7.456.666-10.667,2.469-.144-.463-.279-.931-.423-1.39-1.228-3.863-2.383-7.712-3.359-11.647a74.913,74.913,0,0,0-2.6-8.625c-.027-.076-.063-.153-.09-.229a2.51,2.51,0,0,0,.319,0M202.821,7.034a11.39,11.39,0,0,1,7.11-4.852c2.662-.7,5.747-1.007,8,.85,2.136,1.763,3.449,4.452,4.5,6.957a61.585,61.585,0,0,1,2.712,8.432c.985,3.809,2.064,7.555,3.328,11.287.782,2.316,1.565,4.632,2.217,6.988.324,1.165.625,2.343.877,3.526a13.392,13.392,0,0,1,.558,3.35l-.009.036a.332.332,0,0,0,.22.364l0,0a.59.59,0,0,0,.216.013c-.643.139-1.282.3-1.925.445A23.972,23.972,0,0,0,229.34,40.1c-.621-1.713-1.3-3.4-1.848-5.14-1.16-3.683-2.109-7.438-3.1-11.166-1.439-5.383-2.586-10.878-5.36-15.775-1.214-2.136-3.4-4-5.958-3.971-.234,0-.535.454-.2.526,4.929,1.025,7.28,6.17,8.634,10.527.85,2.73,1.484,5.522,2.177,8.292.895,3.593,1.853,7.164,2.8,10.743.5,1.92,1.016,3.822,1.641,5.707.531,1.605.94,3.229,1.39,4.848-2.936.684-5.864,1.408-8.773,2.194a35.886,35.886,0,0,0-1.956-3.9c-.751-1.408-1.5-2.82-2.231-4.241q-2.172-4.256-4.294-8.54a110.108,110.108,0,0,1-6.606-15.433c-.926-2.9-.989-6.035,1.538-8.13.067-.058.054-.252-.049-.175-4.056,2.968-2.707,9.241-1.174,13.212a168.518,168.518,0,0,0,8.508,17.655c.908,1.722,1.8,3.454,2.685,5.189.791,1.542,1.448,3.175,2.235,4.717-.594.166-1.2.31-1.79.477a28.179,28.179,0,0,0-2.23-5.063c-1.021-1.929-2.1-3.822-3.2-5.7l-.1-.171a.344.344,0,0,0-.121-.22c-1.907-3.274-3.714-6.57-5.374-9.979A57.334,57.334,0,0,1,202.493,16.5c-.836-3.107-1.4-6.543.328-9.461M122.084,476.663c-6.3-4.528-12.771-8.773-18.887-13.54-1.385-1.25-2.752-2.523-4.088-3.822-2.613-2.55-5.063-5.252-7.573-7.9-1.2-1.264-2.365-2.559-3.548-3.836-5.612-6.826-16.1-19.84-19.921-25.857q-3.1-4.89-6-9.907c-.544-1.115-1.1-2.23-1.668-3.337-1.722-3.323-3.494-6.624-5.122-10-1.7-3.539-3.112-7.168-4.461-10.855-2.8-7.672-5.873-15.3-8.234-23.128a160.175,160.175,0,0,1-4.627-22.6c-1.156-7.663-2.581-15.244-4.088-22.844-1.025-6.889-1.907-12.879-2.226-14.831a121.5,121.5,0,0,1-1.736-15.3c-.171-4.965.031-9.934.342-14.889a222.69,222.69,0,0,1,3.431-29.715c1.988-10.033,4.677-19.921,6.966-29.886,1.255-5.464,2.487-10.936,3.75-16.4a.428.428,0,0,0,.121-.319c0-.081.013-.171.013-.256.211-.908.432-1.817.652-2.725.067-.18.135-.36.2-.531.481-1.349,1.034-2.671,1.515-4.02.468-1.313.8-2.667,1.183-4.011.594-1.479,1.205-2.95,1.826-4.429,1.623-3.845,3.22-7.667,5.019-11.44a110.331,110.331,0,0,1,5.868-10.981c1.075-1.727,2.19-3.427,3.17-5.207.463-.85.9-1.709,1.345-2.568,1.246-1.736,2.518-3.458,3.768-5.189,2.383-3.3,4.42-6.8,6.709-10.158,4.744-6.952,10.635-13.054,16.373-19.184,2.887-3.08,5.805-6.138,8.809-9.1s6.161-5.77,9.237-8.657c2.914-2.734,5.8-5.486,8.814-8.108,3.031-2.64,6.242-5,9.515-7.325,6.628-4.717,13.194-9.529,19.971-14.035a146.672,146.672,0,0,1,21.23-12.169c7.505-3.35,15.465-5.509,23.02-8.733A89.822,89.822,0,0,1,203.64,44.57c2.473-.693,5.09-1.084,7.375-2.32.108-.058.2-.135.306-.2a5.228,5.228,0,0,0,1.727-.67l.058-.022c.1.171.2.346.3.526,1.124,2.01,2.1,4.124,3.292,6.1a245.909,245.909,0,0,0,96.359,480.776c4.861-.589,9.7-1.358,14.511-2.248.256.818.553,1.623.8,2.442l.036.148c-1.439.144-2.9.481-4.3.764-1.583.324-3.157.674-4.731,1.016-1.264.274-2.532.513-3.8.729-4.245.342-8.5.558-12.74.625-4.587.072-9.147.018-13.729.261a116.7,116.7,0,0,1-13.85.229c-4.789-.31-9.578-1.061-14.332-1.718-4.816-.666-9.623-1.389-14.421-2.141-9.551-1.493-19.157-2.842-28.663-4.582a146.318,146.318,0,0,1-26.068-7.685c-4.236-1.628-8.432-3.364-12.618-5.108-4.33-1.8-8.724-3.494-12.924-5.585-4.083-2.033-8.013-4.344-11.935-6.669-3.836-2.275-7.8-4.389-11.53-6.835-7.253-4.753-13.639-10.685-20.677-15.744m4.6,4.987c-.229-.171-.459-.342-.688-.508q-3.764-2.766-7.487-5.581c2.424,1.7,4.834,3.436,7.168,5.275.337.27.67.544,1.007.814M90.021,81.714Q87.067,84.709,84.1,87.7c-.58.589-1.147,1.183-1.722,1.772q3.683-4.02,7.64-7.757m11.247,586.921c-.166,2.078-.3,4.1-.661,6.152-.387,2.244-.764,4.506-.94,6.772-.049.648-.13,1.3-.171,1.929a7.654,7.654,0,0,1-.868-2.176,32.4,32.4,0,0,1-.409-8.724c.211-3.152.764-6.323,1.291-9.435.3-1.781.549-3.548.738-5.342,0-.058.009-.113.018-.171a17.962,17.962,0,0,0,.994,4.191,22.666,22.666,0,0,0,.971,2.217,14.756,14.756,0,0,0-.962,4.587m7.771,4.537a65.728,65.728,0,0,0,8.85,7.456q1.8,1.275,3.66,2.473a20.778,20.778,0,0,1-.657,5.261c-.409,1.812-.764,3.611-1.043,5.45q-.492,3.245-1.007,6.485c-.157.985-.369,1.961-.517,2.95a10,10,0,0,0-.135,1.2q-1.686-1.113-3.337-2.293a63.381,63.381,0,0,1-9.084-7.865,110.121,110.121,0,0,1,1.457-11.935,47.742,47.742,0,0,1,1.286-5.306,10.751,10.751,0,0,0,.526-3.876m53.787,28.789c9.075,3.022,18.32,5.545,27.656,7.663a16.073,16.073,0,0,1-.634,3.683c-.292,1.947-.612,3.894-1.007,5.819s-.823,3.863-1.192,5.806a43.793,43.793,0,0,1-1.111,5.594c-9.336-2.064-18.577-4.528-27.66-7.5.639-3.827,1.488-7.622,2.194-11.436.342-1.83.76-3.656,1.147-5.477a13.939,13.939,0,0,0,.607-4.155m27.867,7.708q10.894,2.469,21.918,4.222c2.361.373,4.731.706,7.1,1.03a92.21,92.21,0,0,0-1.354,10.523c-.243,3.5-.665,6.934-1.246,10.388-2.572-.324-5.14-.666-7.7-1.048q-11.285-1.72-22.457-4.169c.522-4.092,1.273-8.157,2.168-12.186.436-1.965.809-3.939,1.2-5.918a8.754,8.754,0,0,0,.382-2.842m85.135,16.836c-.549,3.863-1,7.726-1.758,11.552q-12.776.742-25.574.292c.238-1.794.153-3.642.256-5.446.126-2.253.4-4.5.67-6.736.234-1.938.2-3.926.531-5.846a6.531,6.531,0,0,0,.175-2.757,250.813,250.813,0,0,0,26.9-.508,20.806,20.806,0,0,1-.526,4.146c-.283,1.758-.423,3.539-.67,5.3m1.461-9.466c.859-.067,1.713-.108,2.568-.18,5.122-.477,10.239-1.12,15.312-2,0,.171.031.36.036.54.018,1.043.031,2.082-.009,3.121-.081,1.916-.261,3.827-.481,5.729-.445,3.881-.863,7.766-1.3,11.647-5.63.962-11.319,1.605-17,2.037-.526.036-1.048.054-1.569.086.2-1.943.261-3.894.468-5.833.211-1.979.526-3.944.8-5.913.265-1.875.418-3.777.764-5.635a15.444,15.444,0,0,0,.414-3.6m-28.106,10.028c-.4,3.755-.764,7.519-1.264,11.26-1.7-.063-3.4-.108-5.09-.2q-12.566-.681-25.079-2.2c.45-3.521.76-7.047,1.03-10.581.27-3.467,1.07-6.9,1.286-10.365,9.83,1.322,19.728,2.217,29.644,2.572a20.2,20.2,0,0,1-.2,3.373c-.09,2.059-.1,4.092-.324,6.147M161.81,706.724c-.3,1.812-.737,3.6-1.052,5.405-.634,3.611-1.668,7.15-2.262,10.77-4.717-1.552-9.4-3.215-14.021-5.046q-4.931-1.976-9.749-4.232a11.48,11.48,0,0,1,.477-4.272c.4-1.763.688-3.548,1.016-5.324q1.066-5.72,1.821-11.481c.014-.095-.166-.063-.18.018-.688,3.957-1.228,7.928-2.064,11.858-.4,1.862-.8,3.719-1.25,5.572a11.006,11.006,0,0,0-.441,3.332,130.7,130.7,0,0,1-15.3-8.481,18.929,18.929,0,0,1,.175-2.4c.166-.967.319-1.929.463-2.9.324-2.221.67-4.443,1.016-6.664.265-1.722.679-3.413,1.016-5.122a11.356,11.356,0,0,0,.243-4.551c3.436,2.213,6.993,4.232,10.622,6.1,5,2.563,10.1,4.933,15.3,7.069,4.951,2.01,9.97,3.84,15.033,5.531a28.929,28.929,0,0,1-.863,4.816m-53.94-28.888a40.529,40.529,0,0,0-1.111,5.117c-.346,2.087-.733,4.169-1,6.269-.18,1.448-.459,2.977-.535,4.474-.463-.5-.944-1-1.39-1.52a24.185,24.185,0,0,1-1.614-2.927c-.481-1.061-.787-2.177-1.273-3.229a37.523,37.523,0,0,0,.22-4.663,56.486,56.486,0,0,1,.009-6.588c.175-1.893.328-3.777.441-5.675a19.636,19.636,0,0,1,.755-4.776,32.747,32.747,0,0,0,3.094,4.893c1.016,1.273,2.109,2.478,3.238,3.643a12.982,12.982,0,0,1-.836,4.982m236.8,18.577a48.491,48.491,0,0,1,4.965,11.8,21.161,21.161,0,0,1-.661,11.449,19.188,19.188,0,0,1-2.972,5.45c-1.192,1.673-2.316,3.593-4.038,4.771-1.785,1.228-3.436,2.626-5.225,3.84-1.587,1.079-3.215,2.118-4.785,3.229-3.17,1.713-37.563,14.5-83.593,13.014-12.87-.414-28.456-2.689-41.191-4.578-25.43-3.867-50.837-8.908-74.693-19.044-11.885-5.117-23.456-11.305-33.812-19.458-5.162-4.065-9.457-9.426-13.333-14.943a35.049,35.049,0,0,1-4.564-8.908A21.333,21.333,0,0,1,80.209,673c.54-3.467,1.21-6.534,3.2-9.322a35.977,35.977,0,0,1,7.083-7.249A61.881,61.881,0,0,1,101.2,650a15.358,15.358,0,0,0-.94,3.368,11.29,11.29,0,0,0-.1,1.169,17.309,17.309,0,0,0-.513,2.037c-.351,1.736-.8,3.445-1.187,5.167-.76,3.364-1.439,6.795-1.9,10.208-.054.409-.085.818-.126,1.228a17.8,17.8,0,0,0-.306,2.8,17.009,17.009,0,0,0,.18,2.653c.045.854.117,1.7.225,2.545A9.471,9.471,0,0,0,97.9,685.2c.836,1.291,1.772,2.509,2.523,3.854a31.112,31.112,0,0,0,6.2,7.672c.144.135,5.234,4.034,7.883,5.9,1.228.872,2.478,1.709,3.741,2.523a2.074,2.074,0,0,0,.1.373c.072.18.3.068.391-.068,3.314,2.109,6.732,4.052,10.221,5.851,1.722.881,3.463,1.736,5.207,2.568a.187.187,0,0,0,.193.094c3.26,1.556,6.556,3.035,9.9,4.407,20.839,8.463,42.783,13.967,64.971,17.52,22.192,3.485,44.816,4.888,67.247,2.963a151.609,151.609,0,0,0,31.172-5.787,1.391,1.391,0,0,0,0,.139c0,.189.31.072.306-.081,0-.05,0-.1,0-.148a19.55,19.55,0,0,0,3.341-1.115c1.408-.513,2.851-.922,4.25-1.457A36.468,36.468,0,0,0,323.2,726.3a33.915,33.915,0,0,0,6.826-5.675,13.52,13.52,0,0,0,1.25-1.754c.085-.135.184-.256.265-.4a8.282,8.282,0,0,0,.675-1.461,18.541,18.541,0,0,0,.855-2.527,91.866,91.866,0,0,0,2.46-10.091l.013-.023c.014-.022,0-.036,0-.054.031-.2.059-.387.081-.553.459-3.535,1.1-7.06,1.421-10.6.049-.508.108-1.012.162-1.52a14.17,14.17,0,0,0,.409-1.83,14.719,14.719,0,0,0,.148-2.667c2.123,3.206,5.027,5.9,6.9,9.264m-7.892-2.878c-.373,3.26-1.034,6.494-1.515,9.736-.085.58-.171,1.16-.261,1.74a7.3,7.3,0,0,0-.454,1.637,34.383,34.383,0,0,1-1.192,4.2c-.845,2.617-1.273,5.468-2.851,7.784a20.047,20.047,0,0,1-3.251,3.629,44.511,44.511,0,0,0,.9-4.564c.4-1.866.9-3.71,1.259-5.585a45.831,45.831,0,0,0,.769-5.419c.122-1.79-.121-3.773.675-5.437.072-.148-.094-.234-.166-.086a9.832,9.832,0,0,0-.755,4.308,39.814,39.814,0,0,1-.6,5.365c-.337,2-.823,3.971-1.282,5.949-.445,1.911-.486,4.007-1.223,5.823-.9.782-1.839,1.533-2.811,2.258a41.3,41.3,0,0,1-5.27,3.355c.679-3.368,1.007-6.826,1.569-10.212a44.091,44.091,0,0,0,1.039-9.763c0-.072-.1-.022-.1.031.081,3.454-.693,6.849-1.241,10.239-.526,3.26-1.156,6.556-1.511,9.839q-.958.5-1.947.927c-1.538.67-3.139,1.151-4.717,1.7-1.3.45-2.572.94-3.881,1.363.1-2.617,1.075-5.162.931-7.807,0-.045-.072-.018-.072.018.1,2.694-1.03,5.221-1.156,7.887-.135.045-.265.1-.4.135a.3.3,0,0,0-.175.211,123.721,123.721,0,0,1-13.491,3.058c.693-3.714.877-7.546,1.322-11.3.211-1.8.463-3.593.576-5.4.054-.832.081-1.664.076-2.5a13.455,13.455,0,0,0-.054-1.412,3.657,3.657,0,0,1-.081-.441,127.743,127.743,0,0,0,15.038-3.571c.481,1.367-.243,2.927-.481,4.277-.324,1.844-.409,3.737-.656,5.594-.009.054.094.031.1-.018.175-1.034.337-2.078.486-3.116.13-.926.171-1.866.36-2.784.252-1.255.787-2.725.288-3.984.782-.238,1.569-.468,2.343-.724a61.044,61.044,0,0,0,15.177-7.258,29.124,29.124,0,0,0,6.138-5.756,17.623,17.623,0,0,0,2.653-4.884c-.036.319-.081.63-.112.944m-78.169-54.849c5.405,1.794,11.085,2.725,16.562,4.259,2.8.787,5.59,1.547,8.4,2.307.764.207,1.533.414,2.293.639.994.369,1.988.729,2.977,1.111.067.027.135.054.2.076.418.162.836.306,1.25.468,10.379,4.178,20.551,9.043,29.742,15.465a58.14,58.14,0,0,1,12.331,11.305,28.723,28.723,0,0,1,4.142,7.249,17.632,17.632,0,0,1,.985,4.335l-.054.274c.036.036.072.076.112.112l.009.076c-.009-.1-.031-.018-.063.184l0,.045c-.139,1.021-.432,4.6-.517,5.324a17.259,17.259,0,0,1-2.891,5.437,28.813,28.813,0,0,1-6.12,5.68,58.1,58.1,0,0,1-15.159,7.087c-10.694,3.373-21.859,4.964-33.012,5.814a275.18,275.18,0,0,1-33.578.193c-11.179-.6-22.341-1.691-33.425-3.341-22.143-3.373-44.074-8.67-64.931-16.931a139.955,139.955,0,0,1-29.621-15.7,59.155,59.155,0,0,1-12.209-11.373,31.059,31.059,0,0,1-3.314-5.437l.009-.031c.018-.041-.009-.063-.049-.068-.252-.549-.49-1.1-.7-1.673a15.371,15.371,0,0,1,2.442-15.483,28.4,28.4,0,0,1,6.053-5.589,58.894,58.894,0,0,1,15.065-7.033,133.158,133.158,0,0,1,24.508-5.086c3.274-.108,6.547-.274,9.821-.45,3.674-.2,7.339-.441,11.022-.526s7.343.058,11.017.27a46.865,46.865,0,0,1,5.032.333,10.459,10.459,0,0,0,3.714.207,9.858,9.858,0,0,0,.2,2.1c-.027.234-.058.468-.1.7a24.177,24.177,0,0,0-1.4,4.767c-.378,1.2-.76,2.4-1.106,3.611-.436,1.538-.859,3.085-1.3,4.627-.854,2.253-1.754,4.483-2.572,6.75a46.357,46.357,0,0,0-2.015,6.2,16.941,16.941,0,0,0-.283,5.828,15.437,15.437,0,0,0,2.37,5.868,29.578,29.578,0,0,0,7.838,7.955,40.419,40.419,0,0,0,9.4,5.028,55.519,55.519,0,0,1-6.6-2.455,26.385,26.385,0,0,1-4.573-2.874c-1.372-.989-2.851-1.853-4.119-2.972-1.286-1.133-2.482-2.451-3.669-3.692a12.712,12.712,0,0,1-2.919-4.5c-.022-.072-.175-.009-.157.059.7,3.058,2.8,5.1,4.78,7.4a22.725,22.725,0,0,0,4.02,3.49c1.381,1.007,2.676,2.123,4.11,3.058a38.623,38.623,0,0,0,9.938,4.241c3.562,1.07,16.949,2.662,18.9,2.932a81.048,81.048,0,0,0,11.705.989,52.744,52.744,0,0,0,5.774-.459c1.763-.211,3.548-.373,5.3-.675a20.7,20.7,0,0,0,7.771-2.945,20.987,20.987,0,0,0,6.637-6.831c.036-.063-.027-.18-.09-.1a20.717,20.717,0,0,1-6.057,5.644,23.647,23.647,0,0,1-7.843,2.77c-.337.058-.674.09-1.016.135q1.147-.229,2.284-.495a16.285,16.285,0,0,0,3.863-1.246,12.4,12.4,0,0,0,5.257-5.252,17.536,17.536,0,0,0,1.623-4.587,9.062,9.062,0,0,0,.171-2.311c-.013-.216-.036-.441-.063-.665,0-.063.014-.126.018-.184.108-3.116-.333-6.291-.495-9.4a68.189,68.189,0,0,1,.333-10.275c.306-3.058.737-6.089.917-9.147a10.188,10.188,0,0,0,1.129-2.613m-7.1-30.093c-.3,1.974-.45,4.227-2.163,5.509a21.313,21.313,0,0,1-2.172,1.587,4.443,4.443,0,0,1-1.21.459,3.484,3.484,0,0,0-.522.126c-.382.144-.3.2-.661-.009-.459-.261-1.268.432-.791.845.306.274.427.6.71.863a1.5,1.5,0,0,0,1.151.274,3.539,3.539,0,0,0,.495-.076,8.932,8.932,0,0,0,6.678-3.409,5.374,5.374,0,0,0,1.484-2.253,11.289,11.289,0,0,0,.409-4.106c-.1-2.311-.306-4.618-.387-6.934a13.187,13.187,0,0,0,2.379,4.052c.364.414.751.809,1.129,1.21.3.792.841,1.466,1.142,2.28.481,1.3-.211,2.6-.872,3.719a18.2,18.2,0,0,1-5.333,5.441,25.539,25.539,0,0,1-7.51,3.782c-1.421.414-2.9.643-4.335.971-1.394.315-2.838.481-4.214.863-.04.013-.054.1,0,.09,1.6-.36,3.269-.4,4.884-.715a36.13,36.13,0,0,0,4.92-1.142,31.1,31.1,0,0,0,7.937-4.353,18.16,18.16,0,0,0,5.383-6.057,4.863,4.863,0,0,0,.391-1.062c.022.122.058.238.076.364a23.321,23.321,0,0,1-.4,6.246c-.315,2.118-.769,4.2-1.169,6.3a57.607,57.607,0,0,0-.679,7.82c-.157,2.914-.292,5.981-1.583,8.661a11.147,11.147,0,0,1-5,4.6,48.241,48.241,0,0,1-6.485,2.833c-6.493,2.4-13.261,2.158-19.876.387-.207-.058-.558.279-.279.387a31.2,31.2,0,0,0,17.965.863,49.051,49.051,0,0,0,7.164-2.347,17.706,17.706,0,0,0,6.255-3.98c.117-.126.216-.261.324-.391-.382,2.2-.711,4.425-.971,6.651a18.925,18.925,0,0,1-1.574,1.138,18.307,18.307,0,0,1-2.087.85c-1.56.6-3.116,1.205-4.717,1.677a32.664,32.664,0,0,1-4.722,1.048,15.013,15.013,0,0,0-3.723.571c-.027.013-.022.076.013.063a17.158,17.158,0,0,1,4.321-.495,25.082,25.082,0,0,0,4.812-.971c1.39-.427,2.748-.949,4.11-1.457a14.042,14.042,0,0,0,3.454-1.547,68.486,68.486,0,0,0-.441,8.193c.063,5.414,1.012,11.04-.656,16.3a14.271,14.271,0,0,1-1.731,3.328,10.214,10.214,0,0,1-3.908,3.143,10.643,10.643,0,0,0,.7-1.434,32.493,32.493,0,0,0,1.565-6.255c.445-2.514.836-5.041,1.21-7.568a31.871,31.871,0,0,0,.265-9.8c-.04-.261-.337-.076-.315.126.544,5.5-.738,11.134-1.641,16.539a25.142,25.142,0,0,1-1.466,5.581,9.719,9.719,0,0,1-1.313,2.374,8.1,8.1,0,0,1-1.664,1.309.636.636,0,0,0-.166.207c-.306.09-.612.18-.922.261a83.805,83.805,0,0,1-10.721,1.686c-1.853.247-3.705.517-5.558.747-.675.085-1.354.139-2.033.2a85.153,85.153,0,0,1-8.526-.445c-8.135-.881-16.252-2.586-23.258-6.984-1-.63-2-1.318-2.959-2.055-.6-.836-1.277-1.614-1.952-2.392a.268.268,0,0,0-.045-.2c-2.869-3.849-1.758-8.724-1.25-13.144a55.655,55.655,0,0,1,1.727-9.605c.782-2.617,2.019-5.338,1.866-8.126-.014-.207-.265-.018-.265.126.045,2.5-1.048,4.951-1.776,7.3a83.732,83.732,0,0,0-1.767,8.351c-.715,3.579-1.772,7.114-1.462,10.806-.076-.176-.162-.346-.238-.522a22.4,22.4,0,0,1-2.06-8.639c-.063-3.382,1.273-6.421,2.347-9.56,1.124-3.31,1.88-6.759,2.7-10.149.454-1.889.98-3.8,1.264-5.72.072-.495.162-1.016.243-1.547a16.961,16.961,0,0,0,4.286,5.81,37.99,37.99,0,0,0,6.224,4.524,22.12,22.12,0,0,0,7.325,3.071c.139.027.175-.229.049-.27a33.174,33.174,0,0,1-6.6-3.017,32.345,32.345,0,0,1-5.4-4.367c-2.707-2.635-5.792-5.958-5.725-9.992,0-.149.027-.306.045-.459a1.339,1.339,0,0,0,.162-.4c.045.122.081.243.135.36a10.2,10.2,0,0,0,1.929,2.541c.917,1.007,1.893,1.965,2.815,2.972a13.841,13.841,0,0,0,2.784,2.568c.049.027.072-.067.036-.094a18.817,18.817,0,0,1-2.586-2.563c-.832-.922-1.736-1.781-2.559-2.712a11.813,11.813,0,0,1-1.74-2.671,5.646,5.646,0,0,1-.477-1.4,7.335,7.335,0,0,1-.1-1.214c.328-1.4.773-2.788,1.165-4.1.657-2.226,1.363-4.434,1.952-6.678,1.084-4.169,1-8.648,2.541-12.695a5.323,5.323,0,0,1,1.974-2.685c.836-.585,1.763-1.03,2.617-1.592a11.064,11.064,0,0,0,1.187-.935c-.22,1.133-.427,2.266-.6,3.4-.495,3.373-1,7.1.22,10.392.036.108.094.184.135.283a5.2,5.2,0,0,0,.333.675,6.67,6.67,0,0,0,3.031,2.64c2.671,2.392,6.386,3.6,9.821,4.573A71.624,71.624,0,0,0,226.7,620.5a23.441,23.441,0,0,0,9.938-.445c.292-.09.3-.495-.054-.436-5.922.98-11.984,0-17.655-1.826a43.1,43.1,0,0,1-5.958-2.329c.351-2.1.868-4.151,1.2-6.26.4-2.5,1.169-4.929,1.7-7.406.459-2.136.724-4.295,1.106-6.444.319-1.758.836-3.552.495-5.351-.009-.054-.126-.022-.121.027.216,1.862-.445,3.71-.8,5.513-.463,2.37-.737,4.767-1.3,7.119-.544,2.307-1.129,4.6-1.587,6.925a18.7,18.7,0,0,1-1.016,3.206,10.608,10.608,0,0,0-.684,2.141c-.085-.05-.166-.1-.252-.153a.316.316,0,0,0-.081-.184,8.643,8.643,0,0,0-2.257-1.619,17.654,17.654,0,0,0,.949-3.782c.324-1.8.526-3.624.764-5.441.526-4.038,1.313-8.04,1.992-12.056a101.11,101.11,0,0,0,1.453-12.42,106.3,106.3,0,0,1,1.434-12.272c.6-3.714,1.34-7.577.643-11.337-.013-.063-.085-.036-.072.022.6,3.454-.018,7.011-.58,10.433-.63,3.818-1.3,7.64-1.655,11.5-.373,4.047-.863,8.031-1.605,12.029-.755,4.065-1.628,8.1-2.289,12.182-.306,1.893-.522,3.8-.836,5.693-.27,1.646-.76,3.215-1.16,4.816a11.315,11.315,0,0,1-1.821-2.235c-1.345-2.257-1.286-4.78-.85-7.28q.938-5.376,2.2-10.685a190.684,190.684,0,0,0,4.151-20.515c.234-1.853.441-3.714.665-5.572a58,58,0,0,0,1.021-6.422,24.6,24.6,0,0,0,.058-4.07,30.445,30.445,0,0,0,.306-4.951l-.018-.274c.045-.171.081-.342.135-.513,8.585,2.253,17.34,3.858,26.1,5.27,2.554.409,5.122.747,7.694,1.043a21.684,21.684,0,0,0-.171,2.847c-.072,1.7-.184,3.4-.288,5.1-.207,3.31-.36,6.624-.513,9.934-.157,3.386-.445,6.768-.58,10.154-.1,2.518.917,5.464-.3,7.824-.027.054.067.054.094.009,1.138-2.069.544-4.735.526-6.984-.031-3.323.445-6.7.625-10.024.2-3.656.378-7.312.738-10.959.157-1.574.328-3.139.45-4.717.054-.746.108-1.5.211-2.239.04-.283.108-.567.171-.85,1.273.139,2.545.292,3.818.4l.045.027,0,.112a1.821,1.821,0,0,0-.036.369c-.031.229-.076.459-.112.693-.117.814-.229,1.628-.346,2.442-.256,1.794-.3,3.611-.432,5.419-.261,3.678-.661,7.343-.989,11.017-.639,7.2-1.142,14.417-1.228,21.639-.04,3.292-1.178,6.534-.616,9.83.014.063.13.031.126-.031-.306-3.355.971-6.646.989-10,.023-3.849.229-7.7.481-11.539.513-7.793,1.5-15.532,2.257-23.3.193-1.983.508-3.957.859-5.918a6.245,6.245,0,0,0,.117-.67c1.354.1,2.716.171,4.079.216a7.716,7.716,0,0,0-.958,2.149,33.925,33.925,0,0,0-1.3,5.459c-.315,2.46-.441,4.938-.72,7.4s-.67,4.92-1.043,7.37a141.61,141.61,0,0,0-1.43,14.66,144.151,144.151,0,0,1-1.075,14.606m82.271-58.968c-1.183.171-2.379.225-3.571.283-2.662.121-5.275.571-7.915.908-.7.085-1.39.162-2.087.243-.009-.13-.09-.225-.315-.162-.508.144-1.025.261-1.542.378-4.546.5-9.111.94-13.621,1.664-.49.054-.98.1-1.466.162-5.891.724-11.732,1.8-17.632,2.424-1.376.148-2.748.238-4.119.31-1.965.085-3.93.117-5.9.135-1.758,0-3.521-.036-5.288-.085-1.569-.094-3.139-.229-4.713-.337a25.922,25.922,0,0,0-5.572.063c-3.62-.108-7.235-.265-10.856-.67v-.009c-.018-.337-.423-.22-.643-.054-6.017-.715-11.984-1.794-17.938-2.919-5.356-1.012-10.685-2.055-15.95-3.445a.4.4,0,0,0-.274-.072c-.526-.139-1.052-.265-1.574-.414-1.205-.337-2.4-.706-3.593-1.079-.054-.018-.108-.054-.157-.067a.432.432,0,0,0-.076,0c-10.46-3.274-20.506-7.64-30.6-11.9a323.5,323.5,0,0,1-32.652-15.456c-10.388-5.819-20.825-11.737-30.588-18.568-4.753-3.332-9.425-6.777-14.233-10.028-4.785-3.238-9.039-6.979-13.486-10.653-4.537-3.75-9.322-7.213-13.536-11.341a161.657,161.657,0,0,1-11.4-12.524c-7.074-8.571-13.639-17.61-19.876-26.806-4.411-6.5-13.374-24.454-15.654-29.293-2.4-5.113-4.947-10.167-7.276-15.316A202.268,202.268,0,0,1,8.749,353.421a220.071,220.071,0,0,1-6.08-32.526c-.6-5.527-1.021-11.089-1.129-16.652-.117-5.945.1-11.89.4-17.83.337-6.565,1.88-23.262,2.141-25.061.881-4.384,9.057-42.851,9.668-45.455,1.291-5.5,2.838-10.981,4.479-16.387,3.283-10.824,7.712-21.23,12.16-31.613a188.4,188.4,0,0,1,15.258-29.131c2.307-3.535,4.695-7.015,7.078-10.5.162-.229.328-.45.49-.679a267.578,267.578,0,0,1,28.7-35.175C87.494,86.751,93.124,81.13,98.741,75.5a117.865,117.865,0,0,1,11.107-9.691c3.6-2.59,13.468-9.363,20.937-14.471,7.951-4.978,16.1-9.641,24.292-14.206a177.963,177.963,0,0,1,20.452-9.556c3.445-1.376,6.9-2.671,10.455-3.746,3.454-1.043,6.939-1.979,10.32-3.229a51.658,51.658,0,0,0,4.825-2.037c.625,1.632,1.372,3.22,2.127,4.767,1.943,3.957,4.07,7.865,6.237,11.705.387.679.778,1.354,1.165,2.033-3.445,1.722-7.038,3.1-10.577,4.6-4.128,1.758-8.333,3.323-12.51,4.951-4.2,1.632-8.324,3.386-12.375,5.347-2.033.985-4.133,1.785-6.188,2.712-1.92.859-3.678,2.019-5.518,3.031-3.634,2-7.775,3.094-10.936,5.882-.036.031-.009.112.036.072,2.968-2.518,6.781-3.611,10.208-5.333,1.785-.9,3.454-2.015,5.239-2.918,1.929-.971,3.989-1.686,5.958-2.572,4.106-1.853,8.171-3.705,12.384-5.315,4.074-1.556,8.189-3.017,12.241-4.641,2.307-.922,4.645-1.763,6.93-2.734,1.156-.49,2.28-1.034,3.458-1.475a22.078,22.078,0,0,0,2.069-.872q.513.89,1.025,1.79c-2.554.373-4.911,1.812-7.294,2.7-1.731.648-3.508,1.174-5.234,1.835s-3.431,1.417-5.131,2.154-3.292,1.628-4.969,2.379c-1.659.742-3.359,1.381-5.005,2.15-1.255.58-2.491,1.169-3.764,1.7l-2.883,1.039a24.284,24.284,0,0,0-2.707.989c-.971.364-1.938.737-2.9,1.129C157.209,61.788,144.069,71.808,131,81.193c-3.193,2.293-6.462,4.5-9.52,6.97-3.143,2.541-6.111,5.288-9.052,8.054C106.287,102,100.1,107.679,94.289,113.8c-4.794,5.05-9.65,10.1-14.089,15.487a46.985,46.985,0,0,0-5.216,6.179c-2.545,3.193-5.144,6.345-7.649,9.569-2.464,3.17-3.971,6.921-6.107,10.3a118.719,118.719,0,0,0-6.314,10.658c-1.844,3.732-3.683,7.505-5.27,11.355-1.578,3.822-3.269,7.622-4.7,11.5-2.936,7.991-4.668,16.4-6.75,24.643-1.156,4.591-2.217,9.187-3.116,13.832-.445,2.289-.881,4.578-1.286,6.871-.207,1.178-.414,2.361-.625,3.539-.09.481-.13,1.03-.207,1.574l-.229,1.007c-.085.261-.441,1.138-.252,1.232q-1.444,6.981-2.289,14.071c-.6,5.018-.845,10.069-1.2,15.105-.346,4.956-.643,9.925-.634,14.894.009,1.745.081,3.481.184,5.216.027,1.439.04,2.887.157,4.317.166,2.015.355,4.029.58,6.035q.688,6.084,1.632,12.142c.4,2.617.827,5.23,1.246,7.843.31,3.13.625,6.021.9,7.523.157.854.3,1.7.45,2.559a14.377,14.377,0,0,0,.49,3.116c.013.04.045.054.072.076.193,1.111.4,2.221.6,3.332a220.214,220.214,0,0,0,3.782,22.309c1.893,7.856,4.875,15.415,7.654,22.988,1.394,3.8,2.694,7.649,4.232,11.391,1.448,3.526,3.134,6.948,4.884,10.338,1.731,3.346,3.517,6.669,5.162,10.06a97.749,97.749,0,0,0,5.041,9.277c7.51,12.043,17.421,22.494,27.5,32.4a185.9,185.9,0,0,0,17.349,15.06c6.152,4.708,24.427,16.765,24.171,16.288.526.414,1.043.845,1.569,1.255,7.15,5.558,15.123,9.983,22.966,14.466,8,4.573,16.508,7.964,25.021,11.454a196.009,196.009,0,0,0,26.051,9.021c9.3,2.352,18.927,3.463,28.393,4.982,9.772,1.565,19.548,3.1,29.365,4.317a94.842,94.842,0,0,0,13.783.886c2.361-.054,4.722-.189,7.078-.315,2.838.315,5.644.54,8.517.576a100.159,100.159,0,0,0,20.452-1.439c.863-.166,1.722-.342,2.586-.517,1.151-.108,2.3-.207,3.445-.324,1.8-.184,3.584-.445,5.369-.715.126.54.252,1.075.373,1.614.674,3.062,1.43,6.1,2.325,9.1.526,1.776,1.138,3.526,1.8,5.252-10.015,2.033-20.393,2.136-30.534,3.1-5.756.553-11.476,1.129-17.264,1.259-5.7.13-11.409-.018-17.1-.369-11.481-.706-22.934-2.172-34.289-4.011a255.32,255.32,0,0,1-33.524-7.973c-3.089-.944-6.17-1.911-9.223-2.972-2.7-.935-5.329-2.069-8.031-2.986-2.257-.765-4.546-1.421-6.772-2.271a16.641,16.641,0,0,1-6.323-3.656c-.036-.031-.126.013-.09.054,2.748,3,7.1,4.182,10.833,5.4,4.929,1.6,9.7,3.615,14.642,5.2a263.9,263.9,0,0,0,33.767,8.612c11.346,2.042,22.858,3.553,34.347,4.474a190.607,190.607,0,0,0,34.208-.045c11.813-1.178,23.73-1.605,35.445-3.58.229.589.441,1.183.684,1.767-.175.041-.355.095-.531.117m14.291-22.511c.9,2.882,2.109,5.657,2.99,8.548,1.336,4.358,2.613,9.129,2.037,13.72-.265,2.091-1.111,3.867-3.157,4.7a11.531,11.531,0,0,1-5.927.773,5.729,5.729,0,0,1-4.645-3.148A91.887,91.887,0,0,1,336,542.92c-1.151-3.454-2.073-6.957-3.359-10.361-.558-1.466-1.156-2.9-1.79-4.331a18.069,18.069,0,0,1-.863-2.145c.688-.135,1.367-.3,2.055-.436.184.477.382.944.571,1.394.7,1.686,1.444,3.341,2.051,5.063,1.088,3.1,1.646,6.327,2.909,9.376.023.045.139.018.126-.031-.971-3.107-1.3-6.39-2.3-9.5-.526-1.623-1.088-3.224-1.556-4.866-.157-.562-.306-1.142-.472-1.722,3.4-.719,6.79-1.5,10.159-2.356v0a16.371,16.371,0,0,1,.89,2.109c.391,1.075.782,2.132,1.25,3.17q1.315,2.955,2.455,5.981a38.27,38.27,0,0,1,2.073,7.276,13.639,13.639,0,0,1-.229,6.822c-.944,2.572-3.256,3.755-5.841,4.155-.054,0-.058.117,0,.112a6.637,6.637,0,0,0,5.522-2.954,10.43,10.43,0,0,0,1.1-6.1,41.157,41.157,0,0,0-1.65-7.847c-.652-2.4-1.533-4.717-2.406-7.038a37.919,37.919,0,0,1-1.241-3.759c-.189-.715-.355-1.511-.621-2.253.477-.121.958-.229,1.43-.355a26.008,26.008,0,0,1,1.8,4.785m167.887-178.7a242.31,242.31,0,1,1-55.415-229.787c0,.288-.009.571-.032.85-.153,1.839-.621,3.638-.787,5.473a62.38,62.38,0,0,0-.094,8.841,44.271,44.271,0,0,0,.391,4.569,14.044,14.044,0,0,0,.94,3.917,12.291,12.291,0,0,0,4.659,4.645,24.723,24.723,0,0,1,6.093,5.086,31.354,31.354,0,0,1,2.554,3.876c.337.58.656,1.169.985,1.758.373.67.607,1.39.953,2.064,1.1,2.132,2.653,3.881,2.572,6.422-.077,2.244-1.228,4.173-2.01,6.215a12.319,12.319,0,0,0-.805,7.465c1.174,4.564,5.572,7.37,9.16,9.979,3.427,2.482,7.087,4.92,8.6,9.084a17.659,17.659,0,0,1,.7,6.822c-.063,1.8-.014,3.575,1.183,5.037,1.83,2.244,4.717,3.521,7.047,5.162,1.628,1.142,3.094,2.5,4.717,3.656a29.137,29.137,0,0,0,5.162,3.031,6.153,6.153,0,0,0,4.74.472c.049-.022.09-.054.144-.076a240.556,240.556,0,0,1-1.457,125.441" transform="translate(0.34 0.227)" fill="#86a4bb"/>
          <path id="Trazado_875820" data-name="Trazado 875820" d="M53.853,138.868c-.607,0-1.21-.081-1.812-.13a8.929,8.929,0,0,0-1.835.009c-.067.009-.117.157-.031.153.6-.009,1.21.063,1.812.112a9.623,9.623,0,0,0,1.835.014c.072-.009.117-.157.031-.157" transform="translate(175.634 485.228)" fill="#86a4bb"/>
          <path id="Trazado_875821" data-name="Trazado 875821" d="M59.367,146.538a43.018,43.018,0,0,0-5.27-.517c-1.7-.144-3.566-.059-5.162-.755-.085-.036-.144.117-.072.157a12.632,12.632,0,0,0,4.951.944c1.839.162,3.687.108,5.527.3.058,0,.09-.113.027-.126" transform="translate(171.091 508.186)" fill="#86a4bb"/>
          <path id="Trazado_875822" data-name="Trazado 875822" d="M84.334,15.118A111.014,111.014,0,0,0,69.81,24.826q-3.669,2.867-7.4,5.662c-2.163,1.619-4.623,2.82-6.664,4.609-8.769,7.694-17.956,15.244-25.371,24.3-2.118,2.59-4.061,5.252-6.413,7.64a92.456,92.456,0,0,0-6.507,7.64c-.121.157.036.549.22.342,1.956-2.239,3.737-4.632,5.774-6.8,1-1.07,2.051-2.078,2.99-3.211.9-1.088,1.749-2.226,2.613-3.35A107.757,107.757,0,0,1,41.016,48.768c4.259-3.975,8.7-7.753,13.041-11.638A40.918,40.918,0,0,1,57.488,34.2c1.12-.8,2.307-1.506,3.458-2.266,2.365-1.565,4.578-3.4,6.822-5.131A156.735,156.735,0,0,1,84.357,15.212c.04-.022.027-.126-.022-.094" transform="translate(61.217 53.072)" fill="#86a4bb"/>
          <path id="Trazado_875823" data-name="Trazado 875823" d="M76.039,221.187c-5.243-5.963-10.856-11.588-16-17.641-2.523-2.964-4.92-6.03-7.343-9.075a77.316,77.316,0,0,1-6.781-9.776c-1.273-2.235-2.509-4.5-3.867-6.682-1.187-2.532-2.383-5.063-3.791-7.465-2.123-3.616-4.618-7-6.745-10.613-2.239-3.809-4.308-7.712-6.242-11.683a265.114,265.114,0,0,1-18.6-50.63c-1.111-4.362-2.518-8.643-3.611-13.01S1.08,75.663,1.629,71.148c.009-.063-.081-.031-.09.018-1.1,7.95,1.889,15.919,3.993,23.456,1.178,4.232,2.208,8.495,3.449,12.708q2,6.8,4.407,13.473c6.062,16.742,13.207,33.16,23.105,48.018a49.846,49.846,0,0,1,3.256,5.828c-.094-.13-.184-.265-.283-.4-.027-.036-.112.018-.081.063.238.315.441.648.666.971,2.626,5.482,9.407,15.6,9.282,15.447a49.652,49.652,0,0,1-6.233-10.5c.742,1.345,1.47,2.694,2.212,4.034a73.134,73.134,0,0,0,6.143,9.232c4.834,6.264,9.853,12.313,15.258,18.091,3.04,3.251,6.093,6.484,9.129,9.745.076.085.288-.054.2-.153" transform="translate(4.893 248.904)" fill="#86a4bb"/>
          <path id="Trazado_875824" data-name="Trazado 875824" d="M97.72,20.839c-2.712,2.752-6.709,3.669-10.415,4.182a34.025,34.025,0,0,0-5.27.693A14.691,14.691,0,0,0,76.9,28.439c-3.31,2.739-4.884,6.7-7.289,10.127a14.959,14.959,0,0,1-4.668,4.214,55.181,55.181,0,0,1-5.5,2.5c-1.479.639-3.031,1.034-4.1,2.329a6.7,6.7,0,0,0-1.309,2.568,8.719,8.719,0,0,0,.063,2.918c.036.423.522.36.621,0a17.993,17.993,0,0,1,1.043-2.419,7.545,7.545,0,0,1,.854-1.578,9.009,9.009,0,0,1,3.521-2.874c1.821-.827,3.651-1.65,5.491-2.437a11.162,11.162,0,0,0,4.6-3.341c2.5-3.179,3.881-7.2,6.952-9.929a15.078,15.078,0,0,1,5.068-2.869c1.758-.63,3.458-1.39,5.266-1.88,3.746-1.021,7.568-1.808,10.28-4.83.049-.054.009-.175-.063-.1" transform="translate(188.882 73.023)" fill="#86a4bb"/>
          <path id="Trazado_875825" data-name="Trazado 875825" d="M53.322,63.495a18.552,18.552,0,0,1-.459-6.435,15.157,15.157,0,0,1,1.61-5.873c.953-1.7,2.289-3.17,3.4-4.758q1.707-2.415,3.269-4.924c2.266-3.624,4.133-7.721,3.3-12.083-.036-.193-.3-.009-.283.135.5,4.137-1.052,8.13-3.373,11.494C58.552,44.3,55.26,46.7,53.129,50a12.45,12.45,0,0,0-1.979,5.437,16.841,16.841,0,0,0,.737,5.428c.9,3.984,2.356,7.8,3.274,11.777a31.4,31.4,0,0,1,1.052,7.029,10.761,10.761,0,0,1-.544,3.355,13.966,13.966,0,0,1-2.028,3.44.162.162,0,0,0,.238.22c2.905-2.64,3.274-7.312,2.662-10.95-.7-4.151-2.248-8.144-3.22-12.236" transform="translate(179.074 102.822)" fill="#86a4bb"/>
          <path id="Trazado_875826" data-name="Trazado 875826" d="M67.074,15.635a28.268,28.268,0,0,1-6-2.132c-.058-.031-.148.081-.081.121,3.067,1.9,6.655,2.936,10.006,4.214,3.512,1.34,7.339,2.622,10.055,5.342A9.23,9.23,0,0,1,83.7,28.334c.049.261.409.076.432-.117.944-8.809-10.869-10.882-17.057-12.582" transform="translate(213.546 47.429)" fill="#86a4bb"/>
          <path id="Trazado_875827" data-name="Trazado 875827" d="M67.318,17.445c.031-.225-.229-.2-.256,0a29.066,29.066,0,0,1-1.3,6.03c-.094.247.162.342.279.117A9.224,9.224,0,0,0,66.9,20.62c.135-1.057.265-2.118.418-3.175" transform="translate(230.246 60.674)" fill="#86a4bb"/>
          <path id="Trazado_875828" data-name="Trazado 875828" d="M60.352,68.763A42.157,42.157,0,0,1,53.885,72.9c-2.338,1.133-5.18,2.042-7.784,1.372A9.158,9.158,0,0,1,41.636,71.7a4.491,4.491,0,0,1-1.016-3.35c.189-3.062,1.974-5.877,4-8.076a20.592,20.592,0,0,1,3.188-2.806,33.286,33.286,0,0,0,6-5.581,44.381,44.381,0,0,0,4.6-6.745c1.394-2.383,2.963-4.151,5.743-4.834.166-.04.292-.324.04-.292a7.964,7.964,0,0,0-5.306,3.251c-1.547,1.952-2.766,4.092-4.42,5.963A64.409,64.409,0,0,1,47.477,56a33.741,33.741,0,0,0-3.512,3.431,41.458,41.458,0,0,0-3.26,4.241,13.036,13.036,0,0,0-2.123,4.69,5.51,5.51,0,0,0,.818,4.263,6.735,6.735,0,0,0,4.78,2.437,16.731,16.731,0,0,0,8.809-1.142,30.427,30.427,0,0,0,7.6-4.888c.211-.175-.031-.418-.238-.265" transform="translate(134.841 140.144)" fill="#86a4bb"/>
          <path id="Trazado_875829" data-name="Trazado 875829" d="M44.767,46.2a.135.135,0,0,0-.117-.022c-.243.081-.49.157-.733.238a.269.269,0,0,0-.189.216.131.131,0,0,0,.04.112.135.135,0,0,0,.117.022c.243-.081.49-.157.733-.238a.255.255,0,0,0,.126-.081.236.236,0,0,0,.063-.135.131.131,0,0,0-.04-.112" transform="translate(153.25 161.704)" fill="#86a4bb"/>
          <path id="Trazado_875830" data-name="Trazado 875830" d="M51.419,52.271a14.735,14.735,0,0,0-1.808-2.311,18.686,18.686,0,0,0-4.654-3.445c-.045-.022-.1.054-.058.081a17.9,17.9,0,0,1,4.232,3.836,19.7,19.7,0,0,1,1.659,2.329,21.111,21.111,0,0,0,1.363,2.464c.153.193.463-.121.45-.3a6.356,6.356,0,0,0-1.183-2.658" transform="translate(157.287 162.873)" fill="#86a4bb"/>
          <path id="Trazado_875831" data-name="Trazado 875831" d="M53.74,71.864c-2.5-1.659-5.72-1.376-8.5-.724-2.883.675-5.846,1.605-8.845,1.524a9.637,9.637,0,0,1-7.838-3.984c-1.677-2.392-2.316-5.347-2.954-8.153-.67-2.963-1.3-6.044-3.04-8.6-.045-.063-.112.058-.085.108,3.031,5.05,2.41,11.431,5.248,16.589a10.361,10.361,0,0,0,6.547,5.284c3.166.666,6.021-.6,8.98-1.511a24.226,24.226,0,0,1,4.915-1.075A10.222,10.222,0,0,1,53.542,72.4c.279.13.414-.391.2-.535" transform="translate(78.902 181.759)" fill="#86a4bb"/>
          <path id="Trazado_875832" data-name="Trazado 875832" d="M67.569,59.224C63.288,56.238,58.1,56.5,53.278,57.9S43.7,61.279,38.587,61.176a13.184,13.184,0,0,1-7.942-2.892c-.04-.031-.076.058-.045.094a11.815,11.815,0,0,0,6.39,3.287,18.979,18.979,0,0,0,6.988-.45c4.915-1.079,9.7-2.892,14.777-3.184a17.1,17.1,0,0,1,8.594,1.641c.234.121.414-.31.22-.45" transform="translate(107.302 199.175)" fill="#86a4bb"/>
          <path id="Trazado_875833" data-name="Trazado 875833" d="M40.128,57.576c-.036,0-.072.063-.027.072s.072-.067.027-.072" transform="translate(140.495 201.565)" fill="#86a4bb"/>
          <path id="Trazado_875834" data-name="Trazado 875834" d="M92.873,79.607c-3.436.648-7.177-.112-10.536-.863A54.308,54.308,0,0,1,71.81,75.47a39.627,39.627,0,0,1-4.816-2.851,50.371,50.371,0,0,1-4.636-3.332c-3.107-2.532-5.77-5.567-9.03-7.919-2.833-2.042-6.066-5.711-9.9-5.293-.054.009-.148.121-.058.148a13.3,13.3,0,0,1,4.915,2.388c1.412,1.106,2.743,2.3,4.223,3.319a40.652,40.652,0,0,1,4.74,3.872c1.484,1.385,2.766,2.932,4.169,4.389a21.629,21.629,0,0,0,4.42,3.535,33.941,33.941,0,0,0,5.216,2.307,72.883,72.883,0,0,0,10.6,3.251c3.593.814,7.523,1.574,11.175.71.229-.054.364-.445.045-.387" transform="translate(151.858 196.2)" fill="#86a4bb"/>
          <path id="Trazado_875835" data-name="Trazado 875835" d="M55.2,60.845c-.175-.027-.423.252-.189.288.175.027.427-.252.189-.288" transform="translate(192.359 212.992)" fill="#86a4bb"/>
          <path id="Trazado_875836" data-name="Trazado 875836" d="M65.007,50.336a9.626,9.626,0,0,1-1.844,3.4,9.338,9.338,0,0,1-3.2,2.226,7.867,7.867,0,0,1-7.348.049c-.346-.193-.773.531-.481.764,2.374,1.907,5.585,1.659,8.144.216a12.714,12.714,0,0,0,3.341-2.977,7.672,7.672,0,0,0,1.808-3.705c.049-.337-.351-.193-.423.027" transform="translate(182.314 175.452)" fill="#86a4bb"/>
          <path id="Trazado_875837" data-name="Trazado 875837" d="M55.545,50.7c-.022-.207-.058-.414-.072-.621a2.476,2.476,0,0,1-.027-.315c0-.04.018-.081.022-.126a.731.731,0,0,0-.009-.2.185.185,0,0,0-.288-.157.377.377,0,0,0-.2.4.8.8,0,0,0,.058.175c.018.031.045.058.058.085a1.263,1.263,0,0,1,.072.292,4.343,4.343,0,0,1,.094.589c.058.414.1.832.135,1.246.013.211.283.058.274-.1-.031-.427-.072-.85-.121-1.273" transform="translate(192.549 172.474)" fill="#86a4bb"/>
          <path id="Trazado_875838" data-name="Trazado 875838" d="M55.232,48.858c-.076-.013-.112.144-.036.157s.112-.144.036-.157" transform="translate(193.204 171.075)" fill="#86a4bb"/>
          <path id="Trazado_875839" data-name="Trazado 875839" d="M76.517,45.245c-.5.481-.881,1.066-1.408,1.529A8.425,8.425,0,0,1,73.243,48a9.4,9.4,0,0,1-4.308.953,22.767,22.767,0,0,1-4.223-.643,11.62,11.62,0,0,1-3.894-1.345c-.135-.085-.4.126-.252.247a9.533,9.533,0,0,0,3.647,2.136,12.764,12.764,0,0,0,4.938.193A14.124,14.124,0,0,0,73.743,48.3c1.151-.571,2.766-1.619,3.148-2.932.076-.256-.238-.247-.373-.121" transform="translate(211.986 158.144)" fill="#86a4bb"/>
          <path id="Trazado_875840" data-name="Trazado 875840" d="M64.965,45.292a1.476,1.476,0,0,0-.594-1.2c-.162-.09-.36.2-.252.328a1.992,1.992,0,0,1,.594.994,2.782,2.782,0,0,1-.238,1.331c-.023.049-.014.13.054.144s.121-.054.148-.108a2.993,2.993,0,0,0,.288-1.488" transform="translate(224.451 154.351)" fill="#86a4bb"/>
          <path id="Trazado_875841" data-name="Trazado 875841" d="M25.918,87.338a37.057,37.057,0,0,1-5.477-7.924,28.26,28.26,0,0,1-2.532-9.084,31.546,31.546,0,0,1,.234-9.668,83.619,83.619,0,0,1,3.139-10.9,44.688,44.688,0,0,0,2.662-11.764c0-.04-.067-.013-.072.018-.54,7.933-4.758,14.831-6.588,22.444a28.453,28.453,0,0,0-.688,9.785,27.944,27.944,0,0,0,2.734,8.733,28.682,28.682,0,0,0,6.219,8.715c.175.166.531-.166.369-.351" transform="translate(57.82 133.018)" fill="#86a4bb"/>
          <path id="Trazado_875842" data-name="Trazado 875842" d="M68.67,123.956c-2.149-3.049-4.771-5.963-6.134-9.484-.769-1.979-1.192-4.088-1.925-6.089a42.591,42.591,0,0,1-1.925-6.048c-.45-2.186-.818-4.452-1.1-6.66a37.354,37.354,0,0,1-.373-7.119c.288-4.461,1.983-8.76,2.1-13.225.112-4.294-1.529-8.863.144-13.018.027-.067-.076-.054-.1-.009-1.835,3.476-.773,7.717-.612,11.44.2,4.506-1.3,8.931-1.992,13.351a54.669,54.669,0,0,0,.036,14.314,25.05,25.05,0,0,0,1.493,6c.751,2.028,1.79,3.921,2.631,5.909a30.925,30.925,0,0,0,3.058,5.72c1.291,1.848,2.779,3.521,4.245,5.23.144.171.589-.112.45-.31" transform="translate(197.209 217.965)" fill="#86a4bb"/>
          <path id="Trazado_875843" data-name="Trazado 875843" d="M80.257,111.878a19.809,19.809,0,0,1-4.843-7.523,38.922,38.922,0,0,1-1.763-8.9c-.292-2.914-.342-6.008-1.385-8.778a10.99,10.99,0,0,0-4.573-5.621c-2.59-1.583-5.378-2.779-7.973-4.344-.094-.058-.216.13-.121.193,1.192.836,2.392,1.655,3.557,2.532a36.513,36.513,0,0,1,3,2.248A16.663,16.663,0,0,1,70.3,87.757c2.141,5.419,2.379,11.377,4.317,16.859,1.048,2.95,2.617,5.945,5.324,7.667.189.121.468-.252.315-.4" transform="translate(208.628 268.445)" fill="#86a4bb"/>
          <path id="Trazado_875844" data-name="Trazado 875844" d="M65.9,86.055c-.306-.279-.612-.558-.917-.841-.076-.067-.274.04-.175.13.306.279.612.558.917.841.076.067.274-.041.175-.13" transform="translate(226.86 298.14)" fill="#86a4bb"/>
          <path id="Trazado_875845" data-name="Trazado 875845" d="M87.567,91.779C82.773,85.434,74,86.459,66.98,86.554c-.041,0-.081.081-.023.081,7.06.045,15.181-.342,20.42,5.275.067.067.252-.05.189-.13" transform="translate(234.38 302.489)" fill="#86a4bb"/>
          <path id="Trazado_875846" data-name="Trazado 875846" d="M76.47,94.374a10.457,10.457,0,0,0-1.5-2.734c-.6-.9-1.3-1.758-1.965-2.617-.049-.058-.13.045-.1.1.571.944,1.1,1.911,1.673,2.856a22.723,22.723,0,0,0,1.6,2.635c.126.157.328-.1.288-.238" transform="translate(255.267 311.47)" fill="#86a4bb"/>
          <path id="Trazado_875847" data-name="Trazado 875847" d="M80.322,92.883c.032-.063-.049-.067-.076-.018-1.057,2.123-1.2,4.51-1.628,6.8a45.531,45.531,0,0,1-2.581,7.609,70.017,70.017,0,0,0-3.786,16.184c-.04.328.351.2.4-.041.522-2.752,1.169-5.473,1.785-8.2a79.9,79.9,0,0,1,2.154-8.166,48.636,48.636,0,0,0,2.181-6.966c.432-2.415.486-4.951,1.556-7.2" transform="translate(252.979 324.85)" fill="#86a4bb"/>
          <path id="Trazado_875848" data-name="Trazado 875848" d="M74.013,113.315a19.092,19.092,0,0,0,.184-3,14.373,14.373,0,0,0-.508-2.869,36.442,36.442,0,0,1-.5-6.723c-.009-.2-.382-.126-.373.049a32.442,32.442,0,0,1-.009,6.372,24.451,24.451,0,0,0-.463,3.233,22.17,22.17,0,0,0,.153,3.04,59.441,59.441,0,0,1-.5,12.731c-.027.274.463.162.508-.063.823-4.223.985-8.513,1.511-12.771" transform="translate(252.089 352.032)" fill="#86a4bb"/>
          <path id="Trazado_875849" data-name="Trazado 875849" d="M72.533,107.576c.014-.085-.085-.108-.1-.023-.261,1.727-.764,3.463-.459,5.216.018.117.148.023.13-.072-.31-1.713.18-3.431.427-5.122" transform="translate(251.694 376.144)" fill="#86a4bb"/>
          <path id="Trazado_875850" data-name="Trazado 875850" d="M104.354,103.374c-9.277,2.437-18.491,7.708-24.382,15.379-.045.063.009.153.067.081a33.382,33.382,0,0,1,11.319-8.908c4.277-2.114,8.751-3.809,13-5.967.193-.1.351-.679,0-.585" transform="translate(279.933 361.68)" fill="#86a4bb"/>
          <path id="Trazado_875851" data-name="Trazado 875851" d="M100.028,97.971a38.966,38.966,0,0,0-2.446,5.693c-.774,1.821-1.628,3.606-2.577,5.347a32.02,32.02,0,0,1-8.153,9.655c-.067.054,0,.126.067.072a36.033,36.033,0,0,0,8.382-9.358,44.515,44.515,0,0,0,2.793-5.356c.427-.949.832-1.911,1.214-2.878a14.446,14.446,0,0,0,1.075-3.116c.031-.229-.261-.207-.355-.058" transform="translate(303.952 342.427)" fill="#86a4bb"/>
          <path id="Trazado_875852" data-name="Trazado 875852" d="M120.033,89.579a30.75,30.75,0,0,1-8.949,15.28c-4.245,3.773-9.7,5.873-14.21,9.277a14.478,14.478,0,0,0-3.206,3.377,20.742,20.742,0,0,1-3.179,4.1c-.072.063-.018.18.072.108,2.32-1.88,3.8-4.582,6.215-6.345a88.233,88.233,0,0,1,8.481-4.974c4.663-2.649,9.394-5.311,11.651-10.455,1.462-3.323,3.112-6.8,3.548-10.442.036-.306-.378-.112-.423.076" transform="translate(316.652 312.649)" fill="#86a4bb"/>
          <path id="Trazado_875853" data-name="Trazado 875853" d="M99.894,87.47a9.9,9.9,0,0,0-2.244,3.17c-.027.058.072.045.09,0a9.845,9.845,0,0,1,2.217-3.13c.049-.049-.022-.085-.063-.045" transform="translate(341.792 306.039)" fill="#86a4bb"/>
          <path id="Trazado_875854" data-name="Trazado 875854" d="M103.235,85.51a25.342,25.342,0,0,1-2.028,3.5c-.769,1.079-1.61,2.1-2.428,3.148-.031.04.009.094.049.049,1.7-2.042,3.629-4.1,4.569-6.628.05-.144-.094-.207-.162-.072" transform="translate(345.717 298.987)" fill="#86a4bb"/>
          <path id="Trazado_875855" data-name="Trazado 875855" d="M128.761,93.854c-1.34-1.97-1.668-4.515-1.817-6.84-.072-1.174-.058-2.338-.045-3.517a17.522,17.522,0,0,0-.135-3.6c-.994-4.915-7.24-5.288-11.125-6.462-4.929-1.488-9.88-5.716-10.23-11.148-.315-4.866,1.587-9.83,3.143-14.359a12.5,12.5,0,0,0,.706-7.186,10.526,10.526,0,0,0-5.2-6.4c-.373-.216-.827.486-.558.778a15.325,15.325,0,0,1,4.052,6.673,16.957,16.957,0,0,1,.09,6.246,66.061,66.061,0,0,1-1.907,6.894,24.2,24.2,0,0,0-.98,7.011,12.019,12.019,0,0,0,2.275,6.9c1.52,2.015,3.926,3.22,6.147,4.317a31.1,31.1,0,0,0,6.961,1.983,9.037,9.037,0,0,1,3.233,1.331A6.9,6.9,0,0,1,125.6,79.6a10.491,10.491,0,0,1,.859,3.858c.009,1.443-.216,2.842-.342,4.277-.216,2.527-.058,5.117,2.3,6.592.243.148.468-.288.342-.472" transform="translate(361.972 120.179)" fill="#86a4bb"/>
          <path id="Trazado_875856" data-name="Trazado 875856" d="M105.755,36.436a7.277,7.277,0,0,1-.98-.989c-.148-.184-.283-.378-.441-.553s-.306-.355-.45-.54c-.279-.351-.544-.715-.8-1.084-.126-.18-.234-.369-.373-.544a4.27,4.27,0,0,0-.387-.5c-.193-.184-.418.076-.4.288a4.3,4.3,0,0,0,1.484,2.509c.171.157.351.324.535.477a3.925,3.925,0,0,0,.571.378c.4.234.787.477,1.187.706.072.04.1-.1.054-.144" transform="translate(356.751 112.689)" fill="#86a4bb"/>
        </g>
      </g>
    </g>
    <rect id="Rect치ngulo_403277" data-name="Rect치ngulo 403277" width="1307" height="883" transform="translate(157.051 1872.346)" fill="none"/>
  </g>
</svg>
