<svg xmlns="http://www.w3.org/2000/svg" width="183.549" height="100.584" viewBox="0 0 183.549 100.584">
  <g id="Grupo_1103338" data-name="Grupo 1103338" opacity="0.67">
    <path id="Trazado_886241" data-name="Trazado 886241" d="M1593.689,194.5l-19.1,17.23L1480.1,175.012a81.049,81.049,0,0,0-47.256-3.5l-8.921,2.022a10.876,10.876,0,0,0-7.734,6.664h0a10.869,10.869,0,0,0,6.194,14.071L1560.5,247.944h0a17.273,17.273,0,0,0,22.355-9.842l7.82-20.123L1599,196.564l-5.316-2.065Z" transform="translate(-1415.45 -169.511)" fill="#f3fdf1"/>
    <path id="Trazado_886242" data-name="Trazado 886242" d="M1417.08,183.95a11.171,11.171,0,0,0-.878,1.762h0a10.869,10.869,0,0,0,6.194,14.071l138.117,53.674a17.278,17.278,0,0,0,20.209-5.916Z" transform="translate(-1415.454 -175.023)" fill="#003037"/>
    <path id="Trazado_886243" data-name="Trazado 886243" d="M1459.382,181.891c.488-1.063,1.075-2.1,1.681-3.134l-9.311-3.617c-2.516.612-5.07,1.094-7.616,1.62-2.306.476-4.63.977-6.881,1.675a12.854,12.854,0,0,0-4.655,2.158l23.393,9.088C1457.075,187.065,1458.194,184.463,1459.382,181.891Z" transform="translate(-1421.998 -171.66)" fill="#023047"/>
    <path id="Trazado_886244" data-name="Trazado 886244" d="M1492.422,187.558,1480.2,182.81c-.476.853-.946,1.712-1.366,2.6-1.3,2.739-2.5,5.527-3.653,8.34l12.346,4.8C1488.966,194.816,1490.79,191.218,1492.422,187.558Z" transform="translate(-1438.254 -174.588)" fill="#023047"/>
    <path id="Trazado_886245" data-name="Trazado 886245" d="M1532.81,222.9l47.516,50.527a34.419,34.419,0,0,0,12.593,8.377l22.324,8.674-37.477-50.113-44.95-17.471Z" transform="translate(-1460.256 -189.89)" fill="#d3f8cb"/>
    <path id="Trazado_886246" data-name="Trazado 886246" d="M1461.434,178.511l-7.913,4.927c-.222.136-.019.488.2.352q3.959-2.467,7.914-4.927c.222-.136.018-.488-.2-.352Z" transform="translate(-1429.948 -172.935)" fill="#fff"/>
    <path id="Trazado_886247" data-name="Trazado 886247" d="M1463.4,181.7q-2.291,1.614-4.476,3.382c-.2.167.087.451.284.284,1.428-1.156,2.887-2.263,4.389-3.32.211-.148.013-.5-.2-.352h0Z" transform="translate(-1432.023 -174.15)" fill="#fff"/>
    <path id="Trazado_886248" data-name="Trazado 886248" d="M1490.285,190.627l-6.046,5.341c-.2.173.093.458.285.284l6.046-5.341c.2-.173-.093-.458-.285-.284Z" transform="translate(-1441.687 -177.552)" fill="#fff"/>
    <path id="Trazado_886249" data-name="Trazado 886249" d="M1492.964,192.923a38.13,38.13,0,0,0-4.909,4.358c-.18.192.105.476.284.284a38.336,38.336,0,0,1,4.822-4.3c.2-.155,0-.507-.2-.352h0Z" transform="translate(-1443.148 -178.432)" fill="#fff"/>
    <g id="Grupo_1103117" data-name="Grupo 1103117" transform="translate(52.184 14.082)">
      <path id="Trazado_886250" data-name="Trazado 886250" d="M1511.971,200.271c.519-1.521,1.014-3.048,1.52-4.569l-8.791-3.413c-1.632,3.66-3.419,7.27-4.841,11.011l9.366,3.641c.866-2.244,1.972-4.433,2.739-6.671Z" transform="translate(-1499.86 -192.29)" fill="#023047"/>
      <path id="Trazado_886251" data-name="Trazado 886251" d="M1510.9,198.513a72.8,72.8,0,0,1-5.638,4.865c-.2.161.08.445.284.284a72.69,72.69,0,0,0,5.638-4.865c.192-.179-.1-.47-.284-.284Z" transform="translate(-1501.897 -194.643)" fill="#fff"/>
      <path id="Trazado_886252" data-name="Trazado 886252" d="M1513.127,199.949q-2.81,2.253-5.416,4.729c-.192.179.1.47.285.284,1.738-1.651,3.542-3.233,5.415-4.729.2-.161-.086-.451-.284-.284Z" transform="translate(-1502.834 -195.195)" fill="#fff"/>
    </g>
    <g id="Grupo_1103118" data-name="Grupo 1103118" transform="translate(64.542 18.886)">
      <path id="Trazado_886253" data-name="Trazado 886253" d="M1531.961,208.041c.52-1.521,1.014-3.048,1.521-4.569l-8.791-3.413c-1.632,3.66-3.419,7.27-4.841,11.01l9.366,3.641c.866-2.244,1.972-4.433,2.739-6.671Z" transform="translate(-1519.85 -200.06)" fill="#023047"/>
      <path id="Trazado_886254" data-name="Trazado 886254" d="M1530.9,206.283a72.8,72.8,0,0,1-5.638,4.865c-.2.161.08.445.284.284a72.681,72.681,0,0,0,5.638-4.865c.192-.179-.1-.47-.284-.284Z" transform="translate(-1521.887 -202.413)" fill="#fff"/>
      <path id="Trazado_886255" data-name="Trazado 886255" d="M1533.117,207.709q-2.809,2.253-5.415,4.729c-.193.179.1.47.284.284,1.738-1.651,3.542-3.233,5.416-4.729.2-.161-.087-.451-.284-.284Z" transform="translate(-1522.824 -202.961)" fill="#fff"/>
    </g>
    <g id="Grupo_1103119" data-name="Grupo 1103119" transform="translate(76.9 23.683)">
      <path id="Trazado_886256" data-name="Trazado 886256" d="M1551.951,215.8c.519-1.521,1.014-3.048,1.521-4.569l-8.791-3.413c-1.632,3.66-3.419,7.27-4.841,11.01l9.366,3.641c.865-2.244,1.972-4.433,2.739-6.671Z" transform="translate(-1539.84 -207.82)" fill="#023047"/>
      <path id="Trazado_886257" data-name="Trazado 886257" d="M1550.885,214.053a72.885,72.885,0,0,1-5.639,4.865c-.2.161.08.445.285.284a72.8,72.8,0,0,0,5.638-4.865c.192-.179-.1-.47-.284-.284Z" transform="translate(-1541.877 -210.177)" fill="#fff"/>
      <path id="Trazado_886258" data-name="Trazado 886258" d="M1553.116,215.479q-2.809,2.253-5.415,4.729c-.192.179.1.47.284.284,1.738-1.651,3.543-3.233,5.416-4.729.2-.161-.086-.451-.285-.284Z" transform="translate(-1542.817 -210.725)" fill="#fff"/>
    </g>
    <g id="Grupo_1103120" data-name="Grupo 1103120" transform="translate(89.258 28.487)">
      <path id="Trazado_886259" data-name="Trazado 886259" d="M1571.941,223.571c.519-1.521,1.014-3.048,1.521-4.569l-8.791-3.413c-1.632,3.66-3.419,7.27-4.84,11.01l9.366,3.641c.865-2.244,1.972-4.433,2.738-6.671Z" transform="translate(-1559.83 -215.59)" fill="#023047"/>
      <path id="Trazado_886260" data-name="Trazado 886260" d="M1570.884,221.823a72.875,72.875,0,0,1-5.638,4.865c-.2.161.081.445.284.284a72.534,72.534,0,0,0,5.638-4.865c.192-.179-.1-.47-.284-.284Z" transform="translate(-1561.871 -217.947)" fill="#fff"/>
      <path id="Trazado_886261" data-name="Trazado 886261" d="M1573.107,223.249q-2.81,2.253-5.416,4.729c-.192.179.1.47.285.284,1.737-1.651,3.542-3.233,5.415-4.729.2-.161-.087-.451-.284-.284Z" transform="translate(-1562.807 -218.495)" fill="#fff"/>
    </g>
    <g id="Grupo_1103121" data-name="Grupo 1103121" transform="translate(101.623 33.291)">
      <path id="Trazado_886262" data-name="Trazado 886262" d="M1591.941,231.341c.52-1.521,1.014-3.048,1.521-4.569l-8.791-3.412c-1.633,3.66-3.419,7.27-4.841,11.01l9.366,3.641c.865-2.244,1.972-4.433,2.738-6.671Z" transform="translate(-1579.83 -223.36)" fill="#023047"/>
      <path id="Trazado_886263" data-name="Trazado 886263" d="M1590.875,229.593a72.876,72.876,0,0,1-5.638,4.865c-.2.161.08.445.285.284a72.992,72.992,0,0,0,5.638-4.865c.191-.179-.1-.47-.285-.284Z" transform="translate(-1581.868 -225.717)" fill="#fff"/>
      <path id="Trazado_886264" data-name="Trazado 886264" d="M1593.1,231.019q-2.81,2.253-5.416,4.729c-.192.179.1.47.284.284,1.737-1.651,3.542-3.233,5.415-4.729.2-.161-.086-.451-.284-.284Z" transform="translate(-1582.803 -226.265)" fill="#fff"/>
    </g>
    <g id="Grupo_1103122" data-name="Grupo 1103122" transform="translate(113.981 38.094)">
      <path id="Trazado_886265" data-name="Trazado 886265" d="M1611.931,239.111c.519-1.521,1.014-3.048,1.521-4.569l-8.791-3.413c-1.632,3.66-3.418,7.27-4.841,11.01l9.366,3.641c.865-2.244,1.972-4.433,2.739-6.671Z" transform="translate(-1599.82 -231.13)" fill="#023047"/>
      <path id="Trazado_886266" data-name="Trazado 886266" d="M1610.865,237.363a72.694,72.694,0,0,1-5.638,4.865c-.2.161.081.445.285.284a72.757,72.757,0,0,0,5.638-4.865c.192-.179-.1-.47-.284-.284Z" transform="translate(-1601.857 -233.487)" fill="#fff"/>
      <path id="Trazado_886267" data-name="Trazado 886267" d="M1613.087,238.789q-2.81,2.253-5.416,4.729c-.192.179.1.47.284.284,1.737-1.651,3.543-3.233,5.416-4.729.2-.161-.087-.451-.284-.284Z" transform="translate(-1602.794 -234.035)" fill="#fff"/>
    </g>
    <g id="Grupo_1103123" data-name="Grupo 1103123" transform="translate(126.339 42.898)">
      <path id="Trazado_886268" data-name="Trazado 886268" d="M1631.921,246.881c.52-1.521,1.014-3.048,1.521-4.569l-8.791-3.412c-1.632,3.66-3.419,7.27-4.84,11.01l9.366,3.641c.865-2.244,1.972-4.433,2.739-6.671Z" transform="translate(-1619.811 -238.9)" fill="#023047"/>
      <path id="Trazado_886269" data-name="Trazado 886269" d="M1630.855,245.123a72.932,72.932,0,0,1-5.639,4.865c-.2.161.08.445.284.284a72.828,72.828,0,0,0,5.638-4.865c.192-.179-.1-.47-.284-.284Z" transform="translate(-1621.847 -241.253)" fill="#fff"/>
      <path id="Trazado_886270" data-name="Trazado 886270" d="M1633.087,246.559q-2.81,2.253-5.416,4.729c-.192.179.1.47.284.284,1.737-1.651,3.542-3.233,5.416-4.729.2-.161-.087-.451-.284-.284Z" transform="translate(-1622.787 -241.805)" fill="#fff"/>
    </g>
    <g id="Grupo_1103124" data-name="Grupo 1103124" transform="translate(138.697 47.701)">
      <path id="Trazado_886271" data-name="Trazado 886271" d="M1651.91,254.651c.52-1.521,1.015-3.048,1.521-4.569l-8.791-3.413c-1.632,3.66-3.419,7.27-4.84,11.01l9.366,3.641c.866-2.244,1.972-4.433,2.739-6.671Z" transform="translate(-1639.8 -246.67)" fill="#023047"/>
      <path id="Trazado_886272" data-name="Trazado 886272" d="M1650.855,252.893a72.828,72.828,0,0,1-5.638,4.865c-.2.161.08.445.284.284a72.82,72.82,0,0,0,5.638-4.865c.192-.179-.1-.47-.284-.284Z" transform="translate(-1641.842 -249.023)" fill="#fff"/>
      <path id="Trazado_886273" data-name="Trazado 886273" d="M1653.077,254.329q-2.809,2.253-5.415,4.729c-.192.179.1.47.284.284,1.737-1.651,3.543-3.233,5.415-4.729.2-.161-.087-.451-.284-.284Z" transform="translate(-1642.777 -249.575)" fill="#fff"/>
    </g>
    <g id="Grupo_1103125" data-name="Grupo 1103125" transform="translate(151.062 52.505)">
      <path id="Trazado_886274" data-name="Trazado 886274" d="M1671.911,262.421c.519-1.521,1.014-3.048,1.521-4.569l-8.791-3.413c-1.632,3.66-3.419,7.27-4.841,11.011l9.366,3.641c.865-2.244,1.972-4.433,2.739-6.671Z" transform="translate(-1659.8 -254.44)" fill="#023047"/>
      <path id="Trazado_886275" data-name="Trazado 886275" d="M1670.845,260.663a72.963,72.963,0,0,1-5.638,4.865c-.2.161.081.445.284.284a72.823,72.823,0,0,0,5.638-4.865c.191-.179-.1-.47-.284-.284Z" transform="translate(-1661.838 -256.793)" fill="#fff"/>
      <path id="Trazado_886276" data-name="Trazado 886276" d="M1673.066,262.1q-2.81,2.254-5.416,4.729c-.192.179.1.47.284.284,1.738-1.651,3.543-3.233,5.416-4.729.2-.161-.087-.451-.285-.284Z" transform="translate(-1662.773 -257.345)" fill="#fff"/>
    </g>
  </g>
</svg>
